<?xml version="1.0" encoding="UTF-8" standalone="no"?>
<svg
   width="167.033mm"
   height="74.272003mm"
   viewBox="0 0 167.033 74.272003"
   version="1.1"
   id="svg3862"
   sodipodi:docname="blubber_lounge_ani.svg"
   inkscape:version="1.1.1 (3bf5ae0d25, 2021-09-20)"
   xmlns:inkscape="http://www.inkscape.org/namespaces/inkscape"
   xmlns:sodipodi="http://sodipodi.sourceforge.net/DTD/sodipodi-0.dtd"
   xmlns="http://www.w3.org/2000/svg"
   xmlns:svg="http://www.w3.org/2000/svg"
   xmlns:rdf="http://www.w3.org/1999/02/22-rdf-syntax-ns#"
   xmlns:cc="http://creativecommons.org/ns#"
   xmlns:dc="http://purl.org/dc/elements/1.1/">
  <sodipodi:namedview
     id="namedview7"
     pagecolor="#ffffff"
     bordercolor="#999999"
     borderopacity="1"
     inkscape:pageshadow="0"
     inkscape:pageopacity="0"
     inkscape:pagecheckerboard="0"
     inkscape:document-units="mm"
     showgrid="false"
     inkscape:zoom="0.64292022"
     inkscape:cx="485.28572"
     inkscape:cy="384.96223"
     inkscape:window-width="1920"
     inkscape:window-height="1017"
     inkscape:window-x="-8"
     inkscape:window-y="-8"
     inkscape:window-maximized="1"
     inkscape:current-layer="svg3862" />
  <defs
     id="defs3856" />
  <metadata
     id="metadata3859">
    <rdf:RDF>
      <cc:Work
         rdf:about="">
        <dc:format>image/svg+xml</dc:format>
        <dc:type
           rdf:resource="http://purl.org/dc/dcmitype/StillImage" />
      </cc:Work>
    </rdf:RDF>
  </metadata>
  <path
     id="path3843"
     style="fill:#000000;fill-opacity:1;stroke:none;stroke-width:14.5629;stroke-linecap:round;stroke-linejoin:round;stroke-miterlimit:4;stroke-dasharray:none;stroke-dashoffset:0;stroke-opacity:1;paint-order:fill markers stroke"
     d="m 233.01367,0 0.002,0.00585938 c -6.1934,0 -10.70065,3.43427452 -13.52148,10.30273462 l -1.01172,2.484375 -35.10937,86.390625 c -0.69064,1.496956 -1.38454,2.955876 -2.08985,4.699216 l -46.27539,106.83008 h -32.4707 c -11.46734,0 -20.542915,1.93164 -27.226563,5.79492 -5.15133,3.00518 -9.229027,7.20669 -12.234375,12.60352 -3.004547,5.39618 -4.507813,11.19076 -4.507813,17.38476 0,9.9343 3.525939,18.11964 10.578125,24.5586 6.990376,6.43842 15.882985,9.6582 26.675782,9.6582 13.306794,0 25.081314,-4.69173 35.322264,-14.07422 3.92493,-3.61784 7.1126,-7.35746 9.56641,-11.2207 2.4527,-3.86313 5.82463,-10.57764 10.11718,-20.14453 l 1.10352,-2.57617 h 68.43555 c 1.73172,0 3.2959,-0.15959 4.7832,-0.41407 l 208.49023,-1.86718 c -1.99717,4.16265 -3.04492,8.53254 -3.04492,13.13476 0,8.76907 3.1583,16.06719 9.47461,21.89258 6.25512,5.82576 14.10455,8.73828 23.54883,8.73828 18.02838,0 31.73267,-11.49768 41.11524,-34.49414 l 3.86328,-9.47461 h 15.26953 c 4.84452,0 8.6464,-1.07262 11.40625,-3.21875 2.75909,-2.0849 4.13867,-4.9978 4.13867,-8.73828 0,-5.39622 -3.89355,-8.0957 -11.68164,-8.0957 h -11.03711 l 23.08789,-56.84571 c 1.59511,-3.92451 2.39063,-6.83744 2.39063,-8.73828 0,-2.39142 -0.92092,-4.41439 -2.75977,-6.07031 -1.77827,-1.71768 -3.95359,-2.57617 -6.5293,-2.57617 -5.27387,0 -9.35195,2.45339 -12.23437,7.35937 -3.74045,-4.90598 -9.38347,-7.35937 -16.92578,-7.35937 -10.303,0 -19.59261,4.72192 -27.8711,14.16601 -8.27849,9.44357 -12.41601,20.05215 -12.41601,31.82618 0,7.29736 2.02323,13.21391 6.07031,17.75195 4.10838,4.53774 9.44242,6.80859 16.00391,6.80859 3.434,0 7.08432,-1.1648 10.94726,-3.49609 l -2.85156,7.17383 h -19.77735 c -3.53676,0 -6.75225,0.25899 -9.82421,0.63672 H 226.40234 c -0.59274,-0.0378 -1.16224,-0.0898 -1.80273,-0.0898 h -63.74609 c 14.17904,-35.59396 28.54099,-70.14904 42.94726,-104.89844 0.12541,-0.12472 0.19738,-0.18557 0.33008,-0.30273 l 35.78125,-88.029298 1.01172,-2.482421 c 0.92028,-2.330155 1.3789,-4.415721 1.3789,-6.2558598 0,-2.3914204 -0.92021,-4.4440495 -2.75976,-6.1621093 C 237.76472,0.85852778 235.58929,0 233.01367,0 Z m -91.15625,0.00390625 -37.34375,0.00195313 -2.48242,0.0078125 c -4.047122,0 -7.481903,1.28689072 -10.302734,3.86328122 -2.820734,2.5143685 -4.230469,5.6114188 -4.230469,9.2910159 0,5.886992 3.432813,8.830078 10.300781,8.830078 h 2.484372 10.39453 C 93.819375,48.511017 63.871479,175.43286 36.068359,175.87695 21.333736,176.61744 16.842946,153.35352 22.216797,142.85547 c -2.116233,1.06983 -4.555768,1.52831 -7.054688,1.0957 -3.707059,-0.64078 -6.6696693,-3.04737 -8.2421871,-6.1914 l -1.0214844,-0.0371 c -26.7347015,59.71876 44.8218545,76.25606 66.9726565,35.67187 2.452701,-3.92451 5.82463,-10.64116 10.117187,-20.14648 l 1.103516,-2.57422 h 13.521484 c 20.665699,0 36.120779,-3.31115 46.361329,-9.9336 7.60403,-4.90601 13.7057,-11.43813 18.30469,-19.59375 4.66028,-8.21729 6.99023,-16.58751 6.99023,-25.111324 0,-13.306885 -5.61185,-22.689035 -16.83398,-28.146484 8.27879,-2.881814 14.87193,-7.696273 19.77734,-14.441406 4.96671,-6.745966 7.45117,-14.350441 7.45117,-22.8125 0,-9.811503 -3.27955,-17.35319 -9.84179,-22.6269535 C 163.26082,2.6728582 153.93793,0.00390625 141.85742,0.00390625 Z M 373.6582,0.01367188 c -6.0099,0 -10.45615,3.43484142 -13.33789,10.30273412 l -1.01172,2.576172 -38.54101,95.019532 -1.01172,2.48242 c -0.98088,2.39161 -1.47266,4.50805 -1.47266,6.34766 0,2.45268 0.92052,4.53671 2.75977,6.2539 1.83916,1.71765 4.07793,2.57618 6.71484,2.57618 5.51905,0 9.56502,-2.17724 12.14063,-6.53125 4.29297,4.35401 9.47595,6.53125 15.54687,6.53125 h 8.73828 c 4.78289,0 9.38169,-1.59502 13.79688,-4.78321 12.63205,-9.13738 18.94922,-21.892747 18.94922,-38.265622 0,-8.462589 -2.20754,-15.329752 -6.62305,-20.603516 -4.41483,-5.335559 -10.17957,-8.003906 -17.29297,-8.003906 -2.14596,0 -4.59827,0.421344 -7.35742,1.279296 l 15.26758,-37.521484 1.01172,-2.574219 c 0.98086,-2.329852 1.47265,-4.446818 1.47265,-6.3476559 0,-2.4531779 -0.95072,-4.5067141 -2.85156,-6.1621093 -1.83987,-1.71768194 -4.13933,-2.57617192 -6.89844,-2.57617192 z m 81.68164,0 c -6.00956,0 -10.45543,3.43484142 -13.33789,10.30273412 l -1.01172,2.576172 -38.54101,95.019532 -1.01172,2.48242 c -0.9809,2.39161 -1.47266,4.50805 -1.47266,6.34766 0,2.45268 0.92016,4.53671 2.75977,6.2539 1.83953,1.71765 4.07821,2.57618 6.71484,2.57618 5.51925,0 9.56695,-2.17724 12.14258,-6.53125 4.2923,4.35401 9.47372,6.53125 15.54492,6.53125 h 8.73828 c 4.78292,0 9.38171,-1.59502 13.79688,-4.78321 12.63235,-9.13738 18.94922,-21.892747 18.94922,-38.265622 0,-8.462589 -2.20777,-15.329752 -6.62305,-20.603516 -4.41513,-5.335559 -10.17956,-8.003906 -17.29297,-8.003906 -2.14624,0 -4.59998,0.421344 -7.35937,1.279296 l 15.26953,-37.521484 1.01367,-2.576172 c 0.98045,-2.329852 1.4707,-4.444865 1.4707,-6.3457029 0,-2.4532157 -0.95042,-4.5066763 -2.85156,-6.1621093 -1.83953,-1.71768194 -4.13863,-2.57617192 -6.89844,-2.57617192 z M 136.43164,21.998047 h 1.38086 c 5.57956,0 9.25886,0.329046 11.03711,1.001953 4.47647,1.655395 6.71484,5.029629 6.71484,10.119141 0,2.821152 -0.79659,5.886512 -2.39062,9.197265 -1.53242,3.311358 -3.46638,6.010765 -5.79688,8.095703 -4.41527,3.986079 -10.91509,5.978516 -19.5,5.978516 l -5.51757,0.08789 z M 580.71289,42.59375 c -4.59912,0 -8.15559,3.097504 -10.66992,9.291016 l -10.39453,25.662109 c -1.34933,3.37285 -2.02344,5.765299 -2.02344,7.175781 0,2.452649 0.92106,4.506677 2.75977,6.16211 1.84025,1.655395 4.13866,2.484375 6.89843,2.484375 4.53782,0 8.21833,-3.434804 11.03907,-10.302735 l 3.12695,-7.726562 h 9.5664 c -5.2738,5.886954 -8.95401,10.853386 -11.03906,14.90039 -2.08467,4.047345 -3.12695,8.216941 -3.12695,12.509766 0,6.74547 1.9316,12.2352 5.79492,16.4668 3.92459,4.23106 8.95347,6.3457 15.08594,6.3457 h 18.0293 c 4.90586,0 8.708,-1.04288 11.40625,-3.12695 2.75981,-2.08487 4.13867,-5.02822 4.13867,-8.83008 0,-5.39671 -3.89381,-8.0957 -11.68164,-8.0957 H 608.0332 c -5.64155,0 -8.46289,-2.54507 -8.46289,-7.63477 0,-5.08955 4.87465,-12.294466 14.625,-21.615234 l 1.01367,-0.919922 c 10.17933,0 15.26758,-3.893924 15.26758,-11.681641 0,-5.641663 -4.01506,-8.462891 -12.04883,-8.462891 h -21.52539 c -2.88242,0 -4.69002,-0.186157 -5.42578,-0.552734 -0.73538,-0.368504 -1.2896,-1.287375 -1.65625,-2.759766 l -0.73437,-2.851562 c -1.04289,-4.292258 -3.83306,-6.4375 -8.3711,-6.4375 z M 258.77148,53.908203 c -6.0712,0 -10.85442,4.261301 -14.3496,12.785156 l -12.50977,30.722657 c -1.59473,3.924514 -2.39258,7.359164 -2.39258,10.302734 0,5.15082 1.77944,9.41265 5.33594,12.78516 3.5573,3.37292 8.03334,5.05859 13.42969,5.05859 h 13.42968 c 5.09004,0 9.32068,-1.99221 12.69336,-5.97852 1.71624,3.98631 5.1515,5.97852 10.30274,5.97852 h 16.46484 c 4.90621,0 8.70635,-1.04292 11.4043,-3.12695 2.75981,-2.1467 4.14062,-5.08975 4.14062,-8.83008 0,-2.88231 -0.88862,-4.93764 -2.66797,-6.16406 -1.77824,-1.28875 -4.78232,-1.93164 -9.01367,-1.93164 h -10.66992 l 13.33789,-32.746098 c 1.59475,-3.986306 2.39063,-6.929203 2.39063,-8.830078 0,-2.391459 -0.92063,-4.444957 -2.75977,-6.16211 -1.83996,-1.717719 -4.04742,-2.576172 -6.62305,-2.576172 -6.25469,0 -11.09924,4.292059 -14.5332,12.876954 l -11.49805,28.332031 c -2.51431,6.132473 -7.57371,9.197263 -15.17773,9.197263 -3.6787,0 -5.45619,-1.37893 -5.33398,-4.13867 0.0533,-0.79744 0.36844,-1.993156 0.91992,-3.58789 l 1.01367,-2.759766 9.65625,-23.638672 1.01367,-2.484374 c 0.9805,-2.39161 1.47266,-4.505716 1.47266,-6.345704 0,-2.452837 -0.9202,-4.508667 -2.75977,-6.164062 -1.83955,-1.717682 -4.07792,-2.574219 -6.71484,-2.574219 z m 265.2793,0 c -11.0383,0 -20.57208,4.291341 -28.60547,12.876953 -7.97234,8.585046 -11.95898,18.795307 -11.95898,30.63086 0,9.198314 2.51423,16.189624 7.54297,20.972654 5.08962,4.78299 12.47896,7.17383 22.16797,7.17383 h 26.03125 c 4.90582,0 8.70804,-1.04292 11.40625,-3.12695 2.75984,-2.0849 4.13867,-4.99761 4.13867,-8.73828 0,-5.45802 -3.86321,-8.1875 -11.58985,-8.1875 h -27.31836 c -6.92927,0 -10.39453,-2.29966 -10.39453,-6.898442 h 18.39649 c 7.41974,0 13.00147,-1.134426 16.74219,-3.404297 6.74566,-3.985549 10.11718,-10.118072 10.11718,-18.396484 0,-6.86846 -2.45321,-12.386272 -7.35937,-16.556641 -4.84411,-4.23103 -11.28336,-6.345703 -19.31641,-6.345703 z M 367.49609,72.119141 c 2.57559,0 4.65988,0.890457 6.25391,2.667968 1.59475,1.715906 2.39063,3.954995 2.39062,6.714844 0,3.556649 -1.07274,7.571978 -3.21874,12.048828 -2.08507,4.47651 -4.53825,7.850179 -7.35938,10.119139 -2.02297,1.6554 -4.5059,2.48242 -7.44922,2.48242 -4.10872,0 -7.69585,-1.9622 -10.76172,-5.88672 l 6.16211,-15.175776 c 3.49529,-8.646161 8.1566,-12.970703 13.98242,-12.970703 z m 81.67969,0 c 2.5756,0 4.66116,0.890457 6.25586,2.667968 1.59477,1.715906 2.39258,3.954995 2.39258,6.714844 0,3.556649 -1.07446,7.571978 -3.2207,12.048828 -2.08498,4.47651 -4.53703,7.850179 -7.35743,10.119139 -2.02378,1.6554 -4.50779,2.48242 -7.45117,2.48242 -4.10876,0 -7.69576,-1.9622 -10.76172,-5.88672 l 6.16211,-15.175776 c 3.49561,-8.646161 8.15509,-12.970703 13.98047,-12.970703 z m 74.04883,0.552734 c 4.04712,0 6.16149,1.625249 6.3457,4.875 0.18293,2.882192 -3.00495,4.322266 -9.5664,4.322266 h -10.11719 c 3.25017,-6.132208 7.6963,-9.197266 13.33789,-9.197266 z m -409.78906,5.802734 h 7.63476 c 8.89164,0 15.11734,1.227039 18.67383,3.679688 3.61779,2.452838 5.42774,6.683948 5.42774,12.693359 0,5.090041 -1.3808,10.149224 -4.14063,15.177734 -2.69823,5.02828 -6.22386,8.98304 -10.57813,11.86523 -6.80666,4.53823 -16.77154,6.80665 -29.89453,6.80665 h -7.451168 z m 122.04297,57.453121 c -11.46735,0 -21.40019,4.26131 -29.80079,12.78516 -8.40109,8.52367 -12.60351,18.61237 -12.60351,30.26367 0,11.03845 4.10939,19.37802 12.32617,25.01953 3.49559,2.39165 10.2412,3.58789 20.23633,3.58789 6.13211,0 10.88554,-0.46062 14.25781,-1.38086 3.4343,-0.98074 6.74473,-2.72778 9.93359,-5.24218 4.7829,-3.86336 8.67906,-9.01417 11.6836,-15.45313 3.00535,-6.49965 4.50586,-13.03196 4.50586,-19.59375 0,-8.7075 -2.88201,-15.88173 -8.64649,-21.52344 -5.70357,-5.642 -13.00093,-8.46289 -21.89257,-8.46289 z m 66.43164,0 c -6.07123,0 -10.85432,4.26131 -14.34961,12.78516 l -12.50977,30.72266 c -1.59474,3.92451 -2.39062,7.35931 -2.39062,10.30273 0,5.15097 1.77709,9.41223 5.33398,12.78516 3.5565,3.37307 8.03296,5.06054 13.42969,5.06054 h 13.42969 c 5.0896,0 9.32109,-1.99473 12.69336,-5.98046 1.71773,3.98573 5.15141,5.98046 10.30273,5.98046 h 16.46484 c 4.9058,0 8.70803,-1.04468 11.40625,-3.1289 2.75911,-2.14647 4.13868,-5.08922 4.13868,-8.83008 0,-2.88234 -0.88851,-4.93588 -2.66602,-6.16211 -1.77827,-1.28693 -4.78468,-1.93164 -9.01563,-1.93164 h -10.66992 l 13.32813,-32.74609 c 1.59471,-3.98578 2.39258,-6.9289 2.39258,-8.83008 0,-2.39161 -0.9206,-4.44687 -2.75977,-6.16406 -1.83997,-1.71769 -4.04746,-2.57618 -6.62305,-2.57618 -6.25512,0 -11.09961,4.29383 -14.5332,12.87891 l -11.49805,28.33008 c -2.51441,6.13232 -7.57369,9.19922 -15.17773,9.19922 -3.67831,0 -5.45815,-1.37894 -5.33594,-4.13867 0.0533,-0.79745 0.3703,-1.9932 0.92188,-3.5879 l 1.02148,-2.75976 9.64844,-23.64063 1.02148,-2.48242 c 0.98077,-2.39142 1.47266,-4.5082 1.47266,-6.34765 0,-2.4528 -0.92063,-4.50619 -2.75977,-6.16211 -1.83957,-1.71769 -4.07793,-2.57618 -6.71484,-2.57618 z m 126.90039,0 c -5.94796,0 -12.20294,2.51412 -18.76367,7.54297 -2.02375,-4.1704 -5.39753,-6.25586 -10.11915,-6.25586 -5.76487,0 -9.84299,2.97527 -12.23437,8.92383 l -18.58008,45.80664 -1.01172,2.48438 c -0.98088,2.39164 -1.4707,4.44495 -1.4707,6.16211 0,2.33019 0.91865,4.29217 2.75781,5.88672 1.83957,1.59481 4.07792,2.39257 6.71485,2.39257 6.43891,0 11.28472,-4.04826 14.53515,-12.14257 l 10.85352,-26.67383 c 3.86362,-9.5048 8.9539,-14.25782 15.26953,-14.25781 1.96248,0 3.55652,0.52134 4.7832,1.56445 1.28512,1.04307 1.89903,2.29973 1.83985,3.77148 -0.0533,1.28693 -0.52287,2.97366 -1.38086,5.0586 l -8.09375,20.05273 c -1.71776,4.17033 -2.57618,7.296 -2.57618,9.38086 0,3.43419 1.25682,6.28606 3.77149,8.55469 2.57492,2.26911 5.7339,3.40429 9.47461,3.40429 h 19.22461 c 4.84418,0 8.64712,-1.04273 11.40625,-3.12695 2.75943,-2.08486 4.13867,-4.99745 4.13867,-8.73828 0,-5.45745 -3.89419,-8.1875 -11.68164,-8.1875 h -11.03711 l 10.02539,-24.74414 c 1.34933,-3.37312 2.02344,-6.46852 2.02344,-9.28906 0,-5.09012 -1.87092,-9.29025 -5.61133,-12.60157 -3.74071,-3.31166 -8.49298,-4.96875 -14.25781,-4.96875 z m 154.20117,0 c -11.03834,0 -20.5725,4.29345 -28.60547,12.87891 -7.97201,8.58505 -11.95898,18.79388 -11.95898,30.62891 0,9.19827 2.51453,16.18966 7.54296,20.97265 5.08959,4.78356 12.47889,7.17578 22.16797,7.17578 h 26.03125 c 4.90541,0 8.70805,-1.04468 11.40625,-3.1289 2.75944,-2.08486 4.13867,-4.99746 4.13868,-8.73828 0,-5.45745 -3.86328,-8.18555 -11.58985,-8.18555 h -27.31836 c -6.92988,0 -10.39453,-2.29913 -10.39453,-6.89844 h 18.39648 c 7.41978,0 13.00021,-1.13461 16.74024,-3.40429 6.74574,-3.98631 10.11914,-10.11789 10.11914,-18.39649 0,-6.86846 -2.45366,-12.38718 -7.35938,-16.55664 -4.84418,-4.23141 -11.28275,-6.34766 -19.3164,-6.34766 z m -78.46289,18.21289 h 0.002 c 2.45269,0 4.4763,0.61252 6.07031,1.83985 1.65574,1.22642 2.48438,2.76 2.48438,4.59961 0,0.98082 -0.30623,2.23798 -0.92188,3.77148 l -7.44921,18.21289 c -1.34922,3.25006 -4.63152,4.875 -9.84376,4.875 -6.0099,0 -9.01367,-3.21977 -9.01367,-9.6582 0,-5.6417 1.99297,-10.97754 5.97852,-16.00586 4.04742,-5.08966 8.27781,-7.63477 12.69336,-7.63477 z m 77.63476,0.55274 c 4.04614,0 6.16239,1.62525 6.34766,4.875 0.18293,2.88234 -3.00454,4.32226 -9.56641,4.32226 h -10.11718 c 3.25009,-6.13239 7.6945,-9.19726 13.33593,-9.19726 z m -348.91211,0.82617 c 3.25018,0 5.8868,1.07492 7.91016,3.2207 2.02378,2.14651 3.03711,4.96541 3.03711,8.46094 0,6.07106 -2.08541,11.46765 -6.25586,16.18945 -2.51401,2.88235 -6.10143,4.32422 -10.76172,4.32422 -7.97206,0 -11.95703,-3.55651 -11.95703,-10.66992 0,-5.39622 1.86826,-10.33369 5.60938,-14.81054 3.74,-4.47652 7.88029,-6.71485 12.41796,-6.71485 z m 236.23243,74.69141 h 15.91406 c -3.92493,8.83037 -7.54246,14.99293 -10.85352,18.48828 -3.31177,3.49557 -7.17632,5.24414 -11.59179,5.24414 -3.06599,0 -5.64148,-1.01273 -7.72657,-3.03516 -2.08497,-2.02367 -3.12695,-4.47726 -3.12695,-7.35937 0,-4.2316 1.50286,-7.51195 4.50781,-9.8418 3.06626,-2.33019 7.35798,-3.49609 12.87696,-3.49609 z m -367.70508,2.48437 h 24.19336 c -3.31148,7.72698 -7.51379,13.82818 -12.60352,18.30469 -5.02831,4.53755 -10.27127,6.80664 -15.728514,6.80664 -3.986936,0 -7.296674,-1.19685 -9.933594,-3.58789 -2.638023,-2.33034 -3.955078,-5.24328 -3.955078,-8.73828 0,-8.52382 6.007853,-12.78516 18.027346,-12.78516 z"
     transform="scale(0.26458333)"
     sodipodi:nodetypes="cccccccsccscsccccsccscsccscssccscscscscsccsccscccccsccccccssccccccccccsccsccsccsccccscscsscscscccscssccccscscsscscscccscscscscccccsccscsccccscsscssssccssscccsssccscsscsscscsccscsccscccccscssscscsscssscscscsscsccsccsscsccsccsscscscscsccsccscscscccscssccscsscsscscsccscsccscccccscssscscccsssccsccccscsscssccsssscscsscssscscscssscsccsscsscscsscscsscssccscscssccscss" />
</svg>
