<?xml version="1.0" encoding="UTF-8" standalone="no"?>
<!-- Created with Inkscape (http://www.inkscape.org/) -->

<svg
   xmlns:dc="http://purl.org/dc/elements/1.1/"
   xmlns:cc="http://creativecommons.org/ns#"
   xmlns:rdf="http://www.w3.org/1999/02/22-rdf-syntax-ns#"
   xmlns:svg="http://www.w3.org/2000/svg"
   xmlns="http://www.w3.org/2000/svg"
   xmlns:sodipodi="http://sodipodi.sourceforge.net/DTD/sodipodi-0.dtd"
   xmlns:inkscape="http://www.inkscape.org/namespaces/inkscape"
   width="1920"
   height="1080"
   viewBox="0 0 508.00001 285.75002"
   version="1.1"
   id="svg8"
   inkscape:version="0.92.2 (5c3e80d, 2017-08-06)"
   sodipodi:docname="mobile-background.svg"
   inkscape:export-filename="C:\Users\Max\Desktop\pacala_website\assets\img\hero-background-mobile.png"
   inkscape:export-xdpi="96"
   inkscape:export-ydpi="96">
  <defs
     id="defs2">
    <filter
       inkscape:collect="always"
       style="color-interpolation-filters:sRGB"
       id="filter3840"
       x="-0.045564174"
       width="1.0911283"
       y="-0.31280026"
       height="1.6256005">
      <feGaussianBlur
         inkscape:collect="always"
         stdDeviation="0.89807319"
         id="feGaussianBlur3842" />
    </filter>
  </defs>
  <sodipodi:namedview
     id="base"
     pagecolor="#ffffff"
     bordercolor="#666666"
     borderopacity="1.0"
     inkscape:pageopacity="0.0"
     inkscape:pageshadow="2"
     inkscape:zoom="1.4"
     inkscape:cx="982.19683"
     inkscape:cy="663.26918"
     inkscape:document-units="px"
     inkscape:current-layer="layer1"
     showgrid="false"
     inkscape:window-width="1920"
     inkscape:window-height="1017"
     inkscape:window-x="-8"
     inkscape:window-y="-8"
     inkscape:window-maximized="1"
     units="px"
     showguides="false" />
  <metadata
     id="metadata5">
    <rdf:RDF>
      <cc:Work
         rdf:about="">
        <dc:format>image/svg+xml</dc:format>
        <dc:type
           rdf:resource="http://purl.org/dc/dcmitype/StillImage" />
        <dc:title />
      </cc:Work>
    </rdf:RDF>
  </metadata>
  <g
     inkscape:label="Ebene 1"
     inkscape:groupmode="layer"
     id="layer1"
     transform="translate(-91.377253,86.04696)">
    <g
       style="opacity:0.149"
       transform="matrix(0.67354756,-0.37092602,0.37092602,0.67354756,228.26589,-45.298508)"
       id="g3892">
      <path
         inkscape:connector-curvature="0"
         id="path3890"
         d="m 27.652723,222.72976 -0.657188,0.002 c -1.070801,0 -1.979456,0.3405 -2.725801,1.02217 -0.746319,0.66526 -1.119439,1.48454 -1.119439,2.4581 0,1.5576 0.908655,2.33637 2.725805,2.33637 h 0.657001 2.750159 c -4.460441,7.01489 -12.383703,40.59643 -19.739945,40.71393 -3.8985357,0.19592 -5.0870831,-5.95948 -3.6652516,-8.73709 -0.55992,0.28306 -1.2054622,0.4041 -1.8666346,0.28964 -0.980826,-0.16954 -1.7646071,-0.80598 -2.1806691,-1.63784 l -0.2703496,-0.01 c -7.0735565,15.80059 11.8592589,20.17591 17.7199919,9.43801 0.648944,-1.03836 1.541405,-2.815 2.677144,-5.32995 l 0.291965,-0.68134 h 3.577556 c 5.4678,0 9.55664,-0.87626 12.266118,-2.62845 2.0119,-1.29805 3.626216,-3.02607 4.84303,-5.18391 1.233034,-2.17416 1.849751,-4.3888 1.849751,-6.64406 0,-3.52078 -1.484688,-6.00333 -4.453877,-7.44728 2.19043,-0.76248 3.934747,-2.03632 5.232636,-3.82097 1.314109,-1.78487 1.971322,-3.79666 1.971322,-6.03558 0,-2.59596 -0.867891,-4.59164 -2.604152,-5.98699 -1.736049,-1.41154 -4.202329,-2.11732 -7.398629,-2.11732 z m 33.999169,0 c -1.638673,0 -2.83121,0.90848 -3.577555,2.72576 l -0.267476,0.65707 -9.289619,22.85768 c -0.182731,0.39607 -0.365914,0.7823 -0.552527,1.24356 L 35.72069,278.47926 h -8.591164 c -3.034067,0 -5.435387,0.51113 -7.203769,1.53329 -1.362956,0.79512 -2.441818,1.90633 -3.236983,3.33424 -0.794953,1.42774 -1.192456,2.9609 -1.192456,4.59973 0,2.62845 0.932931,4.79438 2.798822,6.49802 1.849537,1.7035 4.202142,2.55546 7.057736,2.55546 3.520755,0 6.635979,-1.24122 9.345564,-3.72367 1.038471,-0.95722 1.881899,-1.94698 2.531135,-2.96913 0.648944,-1.02212 1.541299,-2.79867 2.677038,-5.32991 l 0.292045,-0.68139 h 18.107043 c 0.458184,0 0.87196,-0.0424 1.265475,-0.10973 l 55.163014,-0.49403 c -0.52842,1.10137 -0.80558,2.25776 -0.80558,3.47543 0,2.32015 0.83556,4.25093 2.50675,5.79223 1.655,1.5414 3.73165,2.31206 6.23045,2.31206 4.77001,0 8.39623,-3.04213 10.8787,-9.12661 l 1.02218,-2.50671 h 4.03998 c 1.28178,0 2.28765,-0.28399 3.01786,-0.85182 0.73001,-0.55163 1.09516,-1.3223 1.09516,-2.31197 0,-1.42775 -1.03024,-2.14172 -3.09084,-2.14172 h -2.92048 l 6.10861,-15.04047 c 0.42204,-1.03836 0.63272,-1.80917 0.63272,-2.3121 0,-0.63273 -0.24348,-1.16807 -0.73001,-1.6062 -0.4705,-0.45447 -1.04642,-0.68147 -1.72791,-0.68147 -1.39538,0 -2.47432,0.64898 -3.23696,1.94702 -0.98966,-1.29804 -2.4824,-1.94702 -4.47797,-1.94702 -2.726,0 -5.18392,1.24921 -7.37427,3.74796 -2.19035,2.49861 -3.28551,5.3055 -3.28551,8.42071 0,1.93076 0.53546,3.49647 1.60625,4.69716 1.08701,1.20061 2.4986,1.80094 4.23466,1.80094 0.90858,0 1.87403,-0.308 2.8961,-0.92482 l -0.75448,1.89829 h -5.23248 c -0.93577,0 -1.78641,0.0682 -2.5992,0.16814 H 59.902096 c -0.156831,-0.01 -0.307494,-0.0235 -0.476956,-0.0235 H 42.559319 c 3.751539,-9.41757 7.551471,-18.56015 11.363131,-27.75426 0.03318,-0.033 0.05214,-0.0495 0.08725,-0.0805 l 9.467298,-23.29081 0.267502,-0.65709 c 0.24349,-0.61652 0.364956,-1.16815 0.364956,-1.65502 0,-0.63273 -0.243491,-1.17603 -0.730205,-1.6306 -0.470494,-0.45446 -1.046447,-0.68133 -1.727912,-0.68133 z m 37.211882,0.002 c -1.590121,0 -2.766465,0.90862 -3.528925,2.72575 l -0.267959,0.68148 -10.197339,25.14054 -0.26748,0.65703 c -0.259524,0.63278 -0.389526,1.1926 -0.389526,1.67933 0,0.64894 0.24349,1.20057 0.730125,1.65491 0.486611,0.45446 1.078947,0.68147 1.776629,0.68147 1.460247,0 2.530949,-0.57594 3.212412,-1.72794 1.135848,1.152 2.506857,1.72794 4.113121,1.72794 h 2.312075 c 1.265471,0 2.482397,-0.42198 3.650583,-1.26552 3.34223,-2.4176 5.01342,-5.79234 5.01342,-10.12433 0,-2.23906 -0.58409,-4.0562 -1.75236,-5.45155 -1.16809,-1.4117 -2.69317,-2.11748 -4.575257,-2.11748 -0.567786,0 -1.216915,0.11116 -1.94694,0.33816 l 4.039997,-9.9272 0.26748,-0.68147 c 0.25952,-0.61644 0.38944,-1.17631 0.38944,-1.67924 0,-0.64907 -0.25147,-1.1926 -0.7544,-1.63059 -0.4868,-0.45447 -1.095273,-0.68148 -1.825288,-0.68148 z m 21.611496,0 c -1.59003,0 -2.76627,0.90862 -3.52892,2.72575 l -0.26747,0.68148 -10.19734,25.14054 -0.26796,0.65703 c -0.25953,0.63278 -0.38953,1.1926 -0.38953,1.67933 0,0.64894 0.24348,1.20057 0.73021,1.65491 0.48671,0.45446 1.07886,0.68147 1.77647,0.68147 1.4603,0 2.5312,-0.57594 3.21267,-1.72794 1.13567,1.152 2.50668,1.72794 4.11302,1.72794 h 2.312 c 1.26548,0 2.48239,-0.42198 3.65057,-1.26552 3.34231,-2.4176 5.01342,-5.79234 5.01342,-10.12433 0,-2.23906 -0.58398,-4.0562 -1.75219,-5.45155 -1.16817,-1.4117 -2.69336,-2.11748 -4.57545,-2.11748 -0.56786,0 -1.21692,0.11116 -1.94701,0.33816 l 4.03999,-9.92723 0.26806,-0.68148 c 0.25941,-0.61644 0.38942,-1.1763 0.38942,-1.67923 0,-0.64908 -0.25147,-1.1926 -0.75448,-1.6306 -0.48671,-0.45447 -1.09517,-0.68147 -1.82537,-0.68147 z m -84.377578,5.81664 h 0.365063 c 1.476258,0 2.449874,0.0871 2.920368,0.26514 1.184399,0.43799 1.776626,1.33046 1.776626,2.67706 0,0.74643 -0.21097,1.55774 -0.632724,2.43371 -0.405453,0.87613 -0.916711,1.59014 -1.533321,2.14178 -1.168207,1.05465 -2.888035,1.58189 -5.159459,1.58189 l -1.460224,0.0235 z m 117.549368,5.4491 c -1.21685,0 -2.15784,0.81942 -2.82309,2.45812 l -2.75007,6.79011 c -0.35701,0.8924 -0.53546,1.52518 -0.53546,1.89837 0,0.64893 0.24352,1.1925 0.73001,1.6305 0.4869,0.43799 1.0952,0.65717 1.82539,0.65717 1.20063,0 2.17414,-0.90866 2.92046,-2.7258 l 0.8275,-2.04428 h 2.53102 c -1.39536,1.55759 -2.36877,2.87179 -2.92044,3.94256 -0.55157,1.07086 -0.8275,2.17412 -0.8275,3.30993 0,1.78474 0.51117,3.23678 1.53334,4.35639 1.03838,1.11947 2.3687,1.6792 3.99125,1.6792 h 4.77012 c 1.29801,0 2.30395,-0.27598 3.01786,-0.82739 0.7302,-0.55162 1.09516,-1.33045 1.09516,-2.33636 0,-1.42788 -1.03023,-2.14177 -3.09076,-2.14177 h -3.06657 c -1.49266,0 -2.23909,-0.67337 -2.23909,-2.02002 0,-1.34661 1.28993,-3.25308 3.86971,-5.7192 l 0.26796,-0.24349 c 2.69328,0 4.0399,-1.03039 4.0399,-3.09089 0,-1.49269 -1.06264,-2.23906 -3.18824,-2.23906 h -5.69488 c -0.76264,0 -1.2412,-0.049 -1.43587,-0.14599 -0.19457,-0.0975 -0.34097,-0.34051 -0.43798,-0.73008 l -0.19456,-0.75452 c -0.27593,-1.13566 -1.01401,-1.70359 -2.2147,-1.70359 z M 9.879074,235.20969 a 0.52669034,0.52669034 0 0 0 -0.5182775,0.43563 0.52669034,0.52669034 0 0 0 0.4281094,0.60847 0.52669034,0.52669034 0 0 0 0.6084731,-0.42856 0.52669034,0.52669034 0 0 0 -0.4285874,-0.60833 0.52669034,0.52669034 0 0 0 -0.090088,-0.01 z m -2.3339918,1.55995 a 0.7706548,0.7706548 0 0 0 -0.7616882,0.63773 0.7706548,0.7706548 0 0 0 0.627911,0.8907 0.7706548,0.7706548 0 0 0 0.8908126,-0.62542 0.7706548,0.7706548 0 0 0 -0.6278843,-0.89082 0.7706548,0.7706548 0 0 0 -0.1290443,-0.0141 z m 60.9213498,0.22134 c -1.60634,0 -2.871814,1.12757 -3.796583,3.38284 l -3.310002,8.12875 c -0.42194,1.03836 -0.632723,1.94698 -0.632723,2.7258 0,1.36282 0.470493,2.49052 1.411483,3.38283 0.941202,0.89242 2.125602,1.3385 3.553386,1.3385 h 3.553198 c 1.346738,0 2.466174,-0.52718 3.358529,-1.58189 0.454088,1.05471 1.362953,1.58189 2.725885,1.58189 h 4.356315 c 1.2981,0 2.303941,-0.27597 3.017772,-0.82737 0.730199,-0.56798 1.095156,-1.34674 1.095156,-2.33637 0,-0.76261 -0.234955,-1.30614 -0.705739,-1.63063 -0.470495,-0.34098 -1.265477,-0.51113 -2.38502,-0.51113 h -2.823072 l 3.528918,-8.66405 c 0.421943,-1.05471 0.632724,-1.83347 0.632724,-2.33641 0,-0.63274 -0.243491,-1.17626 -0.730096,-1.63059 -0.486824,-0.45448 -1.070911,-0.68147 -1.752378,-0.68147 -1.654889,0 -2.936669,1.1358 -3.845238,3.40722 l -3.042129,7.49588 c -0.665245,1.62255 -2.003819,2.43371 -4.015717,2.43371 -0.973322,0 -1.443923,-0.36498 -1.411589,-1.09516 0.01409,-0.21099 0.09758,-0.52722 0.243491,-0.94916 l 0.267979,-0.73002 2.555385,-6.25482 0.267979,-0.65704 c 0.259423,-0.63278 0.389424,-1.1925 0.389424,-1.67933 0,-0.64898 -0.24349,-1.19251 -0.730208,-1.6305 -0.486714,-0.45447 -1.078781,-0.68148 -1.776466,-0.68148 z m 70.188878,0 c -2.92055,0 -5.44342,1.13567 -7.56892,3.40728 -2.10935,2.27146 -3.16385,4.97282 -3.16385,8.10431 0,2.43372 0.66516,4.28339 1.99568,5.5489 1.34663,1.2655 3.30173,1.89823 5.86528,1.89823 h 6.88744 c 1.298,0 2.30395,-0.27597 3.01785,-0.82737 0.73021,-0.55163 1.09516,-1.32234 1.09516,-2.31206 0,-1.4441 -1.02214,-2.16607 -3.06648,-2.16607 h -7.22821 c -1.83337,0 -2.75007,-0.60848 -2.75007,-1.82524 h 4.8674 c 1.96314,0 3.43969,-0.3 4.42942,-0.90057 1.78479,-1.05451 2.67706,-2.67705 2.67706,-4.86738 0,-1.81728 -0.64895,-3.27742 -1.94704,-4.38083 -1.28167,-1.11946 -2.98531,-1.6792 -5.11072,-1.6792 z M 9.1902975,239.0984 a 1.160998,1.160998 0 0 0 -1.1437959,0.96131 1.160998,1.160998 0 0 0 0.9443135,1.3434 1.160998,1.160998 0 0 0 1.3434109,-0.94676 1.160998,1.160998 0 0 0 -0.9465996,-1.34091 1.160998,1.160998 0 0 0 -0.197409,-0.0189 z m 88.0428595,2.71119 c 0.681458,0 1.233132,0.23548 1.654885,0.70578 0.421945,0.454 0.632752,1.04642 0.632752,1.77663 0,0.94103 -0.283984,2.00369 -0.85178,3.18819 -0.551674,1.18441 -1.200612,2.07673 -1.947036,2.67706 -0.535243,0.43799 -1.192465,0.65708 -1.971218,0.65708 -1.087099,0 -2.036259,-0.51924 -2.847436,-1.5576 l 1.630511,-4.0156 c 0.924796,-2.28763 2.157907,-3.43154 3.699322,-3.43154 z m 21.611503,0 c 0.68146,0 1.23314,0.23548 1.65507,0.70578 0.42195,0.454 0.63273,1.04642 0.63273,1.77663 0,0.94103 -0.28399,2.00369 -0.85185,3.18819 -0.55165,1.18441 -1.20071,2.07673 -1.94694,2.67706 -0.53546,0.43799 -1.19256,0.65708 -1.97133,0.65708 -1.08711,0 -2.03633,-0.51924 -2.84753,-1.5576 l 1.63061,-4.0156 c 0.92488,-2.28763 2.15794,-3.43154 3.69924,-3.43154 z m 19.59163,0.14601 c 1.0708,0 1.63053,0.42997 1.67927,1.2898 0.0484,0.76258 -0.79509,1.14385 -2.53114,1.14385 h -2.67706 c 0.85994,-1.62248 2.03626,-2.43365 3.52893,-2.43365 z M 9.63577,242.56393 a 1.6962835,1.6962835 0 0 0 -1.6745179,1.40665 1.6962835,1.6962835 0 0 0 1.3824738,1.95922 1.6962835,1.6962835 0 0 0 1.9615361,-1.3799 1.6962835,1.6962835 0 0 0 -1.3823664,-1.96157 1.6962835,1.6962835 0 0 0 -0.2873113,-0.0235 z m 20.377615,0.92732 h 2.020036 c 2.35258,0 3.999417,0.32447 4.940406,0.9734 0.957208,0.64898 1.436052,1.76855 1.436052,3.35854 0,1.34674 -0.365063,2.68529 -1.095267,4.01575 -0.713906,1.3304 -1.646731,2.37687 -2.798796,3.13945 -1.80093,1.20074 -4.437497,1.80098 -7.909621,1.80098 h -1.971293 z m -24.5417353,0.27503 a 1.989041,1.989041 0 0 0 -1.9615346,1.64754 1.989041,1.989041 0 0 0 1.6207523,2.29993 1.989041,1.989041 0 0 0 2.2998751,-1.61841 1.989041,1.989041 0 0 0 -1.6207779,-2.2999 1.989041,1.989041 0 0 0 -0.3381228,-0.0283 z m 3.5143258,2.55781 a 0.24179664,0.24179664 0 0 0 -0.2382786,0.20204 0.24179664,0.24179664 0 0 0 0.1973023,0.27974 0.24179664,0.24179664 0 0 0 0.2797331,-0.19732 0.24179664,0.24179664 0 0 0 -0.1968506,-0.27974 0.24179664,0.24179664 0 0 0 -0.042674,-0.004 z m -0.9371069,1.28745 a 1.6962835,1.6962835 0 0 0 -1.6718585,1.40435 1.6962835,1.6962835 0 0 0 1.3798933,1.96154 1.6962835,1.6962835 0 0 0 1.9616435,-1.37992 1.6962835,1.6962835 0 0 0 -1.37992,-1.96153 1.6962835,1.6962835 0 0 0 -0.2896783,-0.0235 z m -3.506926,1.82288 a 0.24179664,0.24179664 0 0 0 -0.2382881,0.20205 0.24179664,0.24179664 0 0 0 0.1973332,0.27975 0.24179664,0.24179664 0 0 0 0.2797021,-0.19734 0.24179664,0.24179664 0 0 0 -0.1973011,-0.27974 0.24179664,0.24179664 0 0 0 -0.042706,-0.004 z m 0.082529,1.04158 a 1.6962835,1.6962835 0 0 0 -1.6719673,1.40683 1.6962835,1.6962835 0 0 0 1.3799231,1.96158 1.6962835,1.6962835 0 0 0 1.9615346,-1.3824 1.6962835,1.6962835 0 0 0 -1.3799232,-1.96157 1.6962835,1.6962835 0 0 0 -0.2895672,-0.0235 z m 3.1297145,0.83491 a 0.24179664,0.24179664 0 0 0 -0.2382785,0.20204 0.24179664,0.24179664 0 0 0 0.1973289,0.27974 0.24179664,0.24179664 0 0 0 0.2798132,-0.19732 0.24179664,0.24179664 0 0 0 -0.1973289,-0.27976 0.24179664,0.24179664 0 0 0 -0.042674,-0.004 z m -1.0488938,2.79879 a 1.8342907,1.8342907 0 0 0 -1.8083251,1.51856 1.8342907,1.8342907 0 0 0 1.4920026,2.12222 1.8342907,1.8342907 0 0 0 2.1221717,-1.4943 1.8342907,1.8342907 0 0 0 -1.4943664,-2.11981 1.8342907,1.8342907 0 0 0 -0.311297,-0.0283 z m -3.0761667,0.1361 a 0.76473517,0.76473517 0 0 0 -0.7544741,0.63274 0.76473517,0.76473517 0 0 0 0.6204844,0.88596 0.76473517,0.76473517 0 0 0 0.8859976,-0.62303 0.76473517,0.76473517 0 0 0 -0.6230361,-0.88595 0.76473517,0.76473517 0 0 0 -0.1290465,-0.01 z m 0.7885214,1.31907 c -0.210967,0.29528 -0.5769671,0.46247 -0.9565476,0.39654 -0.096942,-0.0189 -0.181767,-0.0598 -0.2651075,-0.10218 a 2.3863192,2.3863192 0 0 0 -1.0198058,1.56481 2.3863192,2.3863192 0 0 0 1.9446871,2.75993 2.3863192,2.3863192 0 0 0 2.757364,-1.93728 c -0.1879422,0.0141 -0.3781445,0.0189 -0.5719641,-0.0189 -1.252949,-0.21759 -2.0963795,-1.41255 -1.8885193,-2.66501 z m 57.886268,3.12738 c -3.034069,0 -5.662579,1.12761 -7.885236,3.38288 -2.22279,2.25522 -3.334251,4.92423 -3.334251,8.00697 0,2.92059 1.087104,5.1271 3.261127,6.61975 0.924875,0.63279 2.70977,0.94917 5.354314,0.94917 1.622454,0 2.879978,-0.12151 3.772225,-0.36499 0.908657,-0.25949 1.784791,-0.72197 2.628511,-1.38724 1.265475,-1.02218 2.295889,-2.38512 3.090841,-4.08876 0.795166,-1.7197 1.19246,-3.44763 1.19246,-5.18377 0,-2.30386 -0.762436,-4.20225 -2.287621,-5.69495 -1.509071,-1.49278 -3.43979,-2.23906 -5.79237,-2.23906 z m 17.576513,0 c -1.606346,0 -2.871899,1.12761 -3.796695,3.38288 l -3.309892,8.12871 c -0.421942,1.03836 -0.632724,1.94702 -0.632724,2.7258 0,1.36286 0.470495,2.49041 1.41159,3.38283 0.94099,0.89246 2.125392,1.33855 3.553275,1.33855 h 3.553205 c 1.346624,0 2.46628,-0.52733 3.358526,-1.58189 0.454484,1.05456 1.362849,1.58189 2.725802,1.58189 h 4.356405 c 1.297992,0 2.303939,-0.27598 3.017843,-0.82743 0.730014,-0.56792 1.095192,-1.34659 1.095192,-2.33636 0,-0.76262 -0.235469,-1.30615 -0.705768,-1.63059 -0.470501,-0.3405 -1.265663,-0.51119 -2.385102,-0.51119 h -2.823179 l 3.526556,-8.66403 c 0.421934,-1.05457 0.632741,-1.83334 0.632741,-2.33636 0,-0.63278 -0.243509,-1.17631 -0.730122,-1.63065 -0.486825,-0.45447 -1.070807,-0.68147 -1.752265,-0.68147 -1.655002,0 -2.936774,1.13581 -3.845246,3.40728 l -3.042206,7.49587 c -0.665271,1.62251 -2.00384,2.43381 -4.015743,2.43381 -0.973219,0 -1.443923,-0.36498 -1.411589,-1.09516 0.01409,-0.21099 0.09758,-0.52732 0.243517,-0.94925 l 0.270323,-0.73008 2.552933,-6.25467 0.270353,-0.65718 c 0.259495,-0.63273 0.389494,-1.19251 0.389494,-1.6792 0,-0.64897 -0.243488,-1.19251 -0.730094,-1.63064 -0.48672,-0.45447 -1.07897,-0.68147 -1.776652,-0.68147 z m 33.575712,0 c -1.57373,0 -3.22882,0.66518 -4.96468,1.99573 -0.53545,-1.10342 -1.42789,-1.65504 -2.67715,-1.65504 -1.52529,0 -2.60416,0.78692 -3.23688,2.36081 l -4.916221,12.11992 -0.26751,0.65717 c -0.259524,0.63279 -0.389531,1.17631 -0.389531,1.63064 0,0.61653 0.24352,1.13566 0.730132,1.55755 0.486719,0.42196 1.078964,0.63278 1.77665,0.63278 1.70363,0 2.98542,-1.07087 3.84543,-3.21249 l 2.87163,-7.0579 c 1.02225,-2.51481 2.36898,-3.77236 4.03999,-3.77236 0.51924,0 0.9411,0.13799 1.26566,0.41398 0.34002,0.27598 0.50246,0.60846 0.4868,0.99786 -0.0141,0.3405 -0.13805,0.78687 -0.36506,1.33851 l -2.14158,5.30555 c -0.45449,1.1034 -0.68149,1.93079 -0.68149,2.48241 0,0.90863 0.33255,1.66314 0.99789,2.26338 0.68128,0.60037 1.51694,0.90041 2.50667,0.90041 h 5.0865 c 1.28169,0 2.28783,-0.27598 3.01785,-0.82743 0.7301,-0.55162 1.09517,-1.3223 1.09517,-2.31206 0,-1.44395 -1.03042,-2.16607 -3.09085,-2.16607 h -2.92048 l 2.65279,-6.54671 c 0.35701,-0.89247 0.53545,-1.71174 0.53545,-2.45801 0,-1.34676 -0.49495,-2.45812 -1.4846,-3.33424 -0.98973,-0.87621 -2.24712,-1.31425 -3.7724,-1.31425 z m 40.79911,0 c -2.92056,0 -5.44345,1.13571 -7.56884,3.40728 -2.10926,2.27146 -3.16397,4.97296 -3.16397,8.10431 0,2.43371 0.66536,4.28339 1.9958,5.54889 1.34662,1.26565 3.30162,1.89829 5.86519,1.89829 h 6.88764 c 1.29789,0 2.30384,-0.27598 3.01774,-0.82743 0.7301,-0.55162 1.09517,-1.3223 1.09517,-2.31206 0,-1.44395 -1.02224,-2.16608 -3.06656,-2.16608 h -7.22816 c -1.83353,0 -2.75016,-0.60832 -2.75016,-1.82522 h 4.8676 c 1.96315,0 3.43968,-0.3 4.42923,-0.90052 1.78481,-1.05471 2.67724,-2.67705 2.67724,-4.86743 0,-1.81728 -0.64905,-3.27752 -1.94702,-4.38069 -1.28169,-1.11956 -2.98533,-1.67934 -5.1109,-1.67934 z m -20.75964,4.81883 c 0.64894,0 1.1844,0.162 1.60615,0.48673 0.43808,0.32449 0.65721,0.73017 0.65721,1.2169 0,0.25951 -0.0806,0.59213 -0.24349,0.99787 l -1.97143,4.81869 c -0.35698,0.85991 -1.22497,1.28989 -2.60404,1.28989 -1.59012,0 -2.3851,-0.85191 -2.3851,-2.55541 0,-1.4927 0.5274,-2.90424 1.58191,-4.23465 1.07088,-1.34664 2.19032,-2.02002 3.3586,-2.02002 z m 20.54058,0.14599 c 1.07054,0 1.63035,0.42998 1.67937,1.28981 0.0484,0.76262 -0.79496,1.1439 -2.53112,1.1439 h -2.67706 c 0.85992,-1.62253 2.03618,-2.43371 3.52881,-2.43371 z m -92.316284,0.219 c 0.859941,0 1.557626,0.28398 2.092974,0.85172 0.535457,0.56793 0.803118,1.31421 0.803118,2.23907 0,1.6063 -0.551464,3.03404 -1.654896,4.28335 -0.665164,0.76262 -1.614502,1.14391 -2.847536,1.14391 -2.109275,0 -3.163779,-0.94102 -3.163779,-2.82311 0,-1.42775 0.494772,-2.7339 1.484608,-3.9184 0.989544,-1.18441 2.084917,-1.77654 3.285511,-1.77654 z m 62.503154,19.76184 h 4.21038 c -1.03847,2.33637 -1.99576,3.96701 -2.87181,4.89182 -0.87624,0.92487 -1.8983,1.38725 -3.06656,1.38725 -0.81121,0 -1.49267,-0.26797 -2.04435,-0.80307 -0.55165,-0.53543 -0.82747,-1.18441 -0.82747,-1.94697 0,-1.11961 0.39748,-1.98777 1.19254,-2.60421 0.81128,-0.61653 1.94704,-0.92482 3.40727,-0.92482 z m -97.288581,0.65717 h 6.400762 c -0.876162,2.04443 -1.987623,3.65873 -3.334279,4.84314 -1.330408,1.20056 -2.717641,1.80094 -4.161536,1.80094 -1.054877,0 -1.930825,-0.3165 -2.62851,-0.94913 -0.697977,-0.61657 -1.046447,-1.38739 -1.046447,-2.31211 0,-2.25526 1.589853,-3.38284 4.77001,-3.38284 z"
         style="opacity:1;fill:#000000;fill-opacity:1;stroke:none;stroke-width:3.85311127;stroke-linecap:round;stroke-linejoin:round;stroke-miterlimit:4;stroke-dasharray:none;stroke-dashoffset:0;stroke-opacity:1;paint-order:fill markers stroke" />
    </g>
    <g
       id="layer1-1"
       transform="matrix(0.47866244,-0.23712782,0.23712782,0.47866244,186.36433,-119.99486)"
       style="opacity:0.219">
      <path
         style="opacity:1;fill:#000000;fill-opacity:1;stroke:none;stroke-width:3.85311127;stroke-linecap:round;stroke-linejoin:round;stroke-miterlimit:4;stroke-dasharray:none;stroke-dashoffset:0;stroke-opacity:1;paint-order:fill markers stroke"
         d="m 27.652723,222.72976 -0.657188,0.002 c -1.070801,0 -1.979456,0.3405 -2.725801,1.02217 -0.746319,0.66526 -1.119439,1.48454 -1.119439,2.4581 0,1.5576 0.908655,2.33637 2.725805,2.33637 h 0.657001 2.750159 c -4.460441,7.01489 -12.383703,40.59643 -19.739945,40.71393 -3.8985357,0.19592 -5.0870831,-5.95948 -3.6652516,-8.73709 -0.55992,0.28306 -1.2054622,0.4041 -1.8666346,0.28964 -0.980826,-0.16954 -1.7646071,-0.80598 -2.1806691,-1.63784 l -0.2703496,-0.01 c -7.0735565,15.80059 11.8592589,20.17591 17.7199919,9.43801 0.648944,-1.03836 1.541405,-2.815 2.677144,-5.32995 l 0.291965,-0.68134 h 3.577556 c 5.4678,0 9.55664,-0.87626 12.266118,-2.62845 2.0119,-1.29805 3.626216,-3.02607 4.84303,-5.18391 1.233034,-2.17416 1.849751,-4.3888 1.849751,-6.64406 0,-3.52078 -1.484688,-6.00333 -4.453877,-7.44728 2.19043,-0.76248 3.934747,-2.03632 5.232636,-3.82097 1.314109,-1.78487 1.971322,-3.79666 1.971322,-6.03558 0,-2.59596 -0.867891,-4.59164 -2.604152,-5.98699 -1.736049,-1.41154 -4.202329,-2.11732 -7.398629,-2.11732 z m 33.999169,0 c -1.638673,0 -2.83121,0.90848 -3.577555,2.72576 l -0.267476,0.65707 -9.289619,22.85768 c -0.182731,0.39607 -0.365914,0.7823 -0.552527,1.24356 L 35.72069,278.47926 h -8.591164 c -3.034067,0 -5.435387,0.51113 -7.203769,1.53329 -1.362956,0.79512 -2.441818,1.90633 -3.236983,3.33424 -0.794953,1.42774 -1.192456,2.9609 -1.192456,4.59973 0,2.62845 0.932931,4.79438 2.798822,6.49802 1.849537,1.7035 4.202142,2.55546 7.057736,2.55546 3.520755,0 6.635979,-1.24122 9.345564,-3.72367 1.038471,-0.95722 1.881899,-1.94698 2.531135,-2.96913 0.648944,-1.02212 1.541299,-2.79867 2.677038,-5.32991 l 0.292045,-0.68139 h 18.107043 c 0.458184,0 0.87196,-0.0424 1.265475,-0.10973 l 55.163014,-0.49403 c -0.52842,1.10137 -0.80558,2.25776 -0.80558,3.47543 0,2.32015 0.83556,4.25093 2.50675,5.79223 1.655,1.5414 3.73165,2.31206 6.23045,2.31206 4.77001,0 8.39623,-3.04213 10.8787,-9.12661 l 1.02218,-2.50671 h 4.03998 c 1.28178,0 2.28765,-0.28399 3.01786,-0.85182 0.73001,-0.55163 1.09516,-1.3223 1.09516,-2.31197 0,-1.42775 -1.03024,-2.14172 -3.09084,-2.14172 h -2.92048 l 6.10861,-15.04047 c 0.42204,-1.03836 0.63272,-1.80917 0.63272,-2.3121 0,-0.63273 -0.24348,-1.16807 -0.73001,-1.6062 -0.4705,-0.45447 -1.04642,-0.68147 -1.72791,-0.68147 -1.39538,0 -2.47432,0.64898 -3.23696,1.94702 -0.98966,-1.29804 -2.4824,-1.94702 -4.47797,-1.94702 -2.726,0 -5.18392,1.24921 -7.37427,3.74796 -2.19035,2.49861 -3.28551,5.3055 -3.28551,8.42071 0,1.93076 0.53546,3.49647 1.60625,4.69716 1.08701,1.20061 2.4986,1.80094 4.23466,1.80094 0.90858,0 1.87403,-0.308 2.8961,-0.92482 l -0.75448,1.89829 h -5.23248 c -0.93577,0 -1.78641,0.0682 -2.5992,0.16814 H 59.902096 c -0.156831,-0.01 -0.307494,-0.0235 -0.476956,-0.0235 H 42.559319 c 3.751539,-9.41757 7.551471,-18.56015 11.363131,-27.75426 0.03318,-0.033 0.05214,-0.0495 0.08725,-0.0805 l 9.467298,-23.29081 0.267502,-0.65709 c 0.24349,-0.61652 0.364956,-1.16815 0.364956,-1.65502 0,-0.63273 -0.243491,-1.17603 -0.730205,-1.6306 -0.470494,-0.45446 -1.046447,-0.68133 -1.727912,-0.68133 z m 37.211882,0.002 c -1.590121,0 -2.766465,0.90862 -3.528925,2.72575 l -0.267959,0.68148 -10.197339,25.14054 -0.26748,0.65703 c -0.259524,0.63278 -0.389526,1.1926 -0.389526,1.67933 0,0.64894 0.24349,1.20057 0.730125,1.65491 0.486611,0.45446 1.078947,0.68147 1.776629,0.68147 1.460247,0 2.530949,-0.57594 3.212412,-1.72794 1.135848,1.152 2.506857,1.72794 4.113121,1.72794 h 2.312075 c 1.265471,0 2.482397,-0.42198 3.650583,-1.26552 3.34223,-2.4176 5.01342,-5.79234 5.01342,-10.12433 0,-2.23906 -0.58409,-4.0562 -1.75236,-5.45155 -1.16809,-1.4117 -2.69317,-2.11748 -4.575257,-2.11748 -0.567786,0 -1.216915,0.11116 -1.94694,0.33816 l 4.039997,-9.9272 0.26748,-0.68147 c 0.25952,-0.61644 0.38944,-1.17631 0.38944,-1.67924 0,-0.64907 -0.25147,-1.1926 -0.7544,-1.63059 -0.4868,-0.45447 -1.095273,-0.68148 -1.825288,-0.68148 z m 21.611496,0 c -1.59003,0 -2.76627,0.90862 -3.52892,2.72575 l -0.26747,0.68148 -10.19734,25.14054 -0.26796,0.65703 c -0.25953,0.63278 -0.38953,1.1926 -0.38953,1.67933 0,0.64894 0.24348,1.20057 0.73021,1.65491 0.48671,0.45446 1.07886,0.68147 1.77647,0.68147 1.4603,0 2.5312,-0.57594 3.21267,-1.72794 1.13567,1.152 2.50668,1.72794 4.11302,1.72794 h 2.312 c 1.26548,0 2.48239,-0.42198 3.65057,-1.26552 3.34231,-2.4176 5.01342,-5.79234 5.01342,-10.12433 0,-2.23906 -0.58398,-4.0562 -1.75219,-5.45155 -1.16817,-1.4117 -2.69336,-2.11748 -4.57545,-2.11748 -0.56786,0 -1.21692,0.11116 -1.94701,0.33816 l 4.03999,-9.92723 0.26806,-0.68148 c 0.25941,-0.61644 0.38942,-1.1763 0.38942,-1.67923 0,-0.64908 -0.25147,-1.1926 -0.75448,-1.6306 -0.48671,-0.45447 -1.09517,-0.68147 -1.82537,-0.68147 z m -84.377578,5.81664 h 0.365063 c 1.476258,0 2.449874,0.0871 2.920368,0.26514 1.184399,0.43799 1.776626,1.33046 1.776626,2.67706 0,0.74643 -0.21097,1.55774 -0.632724,2.43371 -0.405453,0.87613 -0.916711,1.59014 -1.533321,2.14178 -1.168207,1.05465 -2.888035,1.58189 -5.159459,1.58189 l -1.460224,0.0235 z m 117.549368,5.4491 c -1.21685,0 -2.15784,0.81942 -2.82309,2.45812 l -2.75007,6.79011 c -0.35701,0.8924 -0.53546,1.52518 -0.53546,1.89837 0,0.64893 0.24352,1.1925 0.73001,1.6305 0.4869,0.43799 1.0952,0.65717 1.82539,0.65717 1.20063,0 2.17414,-0.90866 2.92046,-2.7258 l 0.8275,-2.04428 h 2.53102 c -1.39536,1.55759 -2.36877,2.87179 -2.92044,3.94256 -0.55157,1.07086 -0.8275,2.17412 -0.8275,3.30993 0,1.78474 0.51117,3.23678 1.53334,4.35639 1.03838,1.11947 2.3687,1.6792 3.99125,1.6792 h 4.77012 c 1.29801,0 2.30395,-0.27598 3.01786,-0.82739 0.7302,-0.55162 1.09516,-1.33045 1.09516,-2.33636 0,-1.42788 -1.03023,-2.14177 -3.09076,-2.14177 h -3.06657 c -1.49266,0 -2.23909,-0.67337 -2.23909,-2.02002 0,-1.34661 1.28993,-3.25308 3.86971,-5.7192 l 0.26796,-0.24349 c 2.69328,0 4.0399,-1.03039 4.0399,-3.09089 0,-1.49269 -1.06264,-2.23906 -3.18824,-2.23906 h -5.69488 c -0.76264,0 -1.2412,-0.049 -1.43587,-0.14599 -0.19457,-0.0975 -0.34097,-0.34051 -0.43798,-0.73008 l -0.19456,-0.75452 c -0.27593,-1.13566 -1.01401,-1.70359 -2.2147,-1.70359 z M 9.879074,235.20969 a 0.52669034,0.52669034 0 0 0 -0.5182775,0.43563 0.52669034,0.52669034 0 0 0 0.4281094,0.60847 0.52669034,0.52669034 0 0 0 0.6084731,-0.42856 0.52669034,0.52669034 0 0 0 -0.4285874,-0.60833 0.52669034,0.52669034 0 0 0 -0.090088,-0.01 z m -2.3339918,1.55995 a 0.7706548,0.7706548 0 0 0 -0.7616882,0.63773 0.7706548,0.7706548 0 0 0 0.627911,0.8907 0.7706548,0.7706548 0 0 0 0.8908126,-0.62542 0.7706548,0.7706548 0 0 0 -0.6278843,-0.89082 0.7706548,0.7706548 0 0 0 -0.1290443,-0.0141 z m 60.9213498,0.22134 c -1.60634,0 -2.871814,1.12757 -3.796583,3.38284 l -3.310002,8.12875 c -0.42194,1.03836 -0.632723,1.94698 -0.632723,2.7258 0,1.36282 0.470493,2.49052 1.411483,3.38283 0.941202,0.89242 2.125602,1.3385 3.553386,1.3385 h 3.553198 c 1.346738,0 2.466174,-0.52718 3.358529,-1.58189 0.454088,1.05471 1.362953,1.58189 2.725885,1.58189 h 4.356315 c 1.2981,0 2.303941,-0.27597 3.017772,-0.82737 0.730199,-0.56798 1.095156,-1.34674 1.095156,-2.33637 0,-0.76261 -0.234955,-1.30614 -0.705739,-1.63063 -0.470495,-0.34098 -1.265477,-0.51113 -2.38502,-0.51113 h -2.823072 l 3.528918,-8.66405 c 0.421943,-1.05471 0.632724,-1.83347 0.632724,-2.33641 0,-0.63274 -0.243491,-1.17626 -0.730096,-1.63059 -0.486824,-0.45448 -1.070911,-0.68147 -1.752378,-0.68147 -1.654889,0 -2.936669,1.1358 -3.845238,3.40722 l -3.042129,7.49588 c -0.665245,1.62255 -2.003819,2.43371 -4.015717,2.43371 -0.973322,0 -1.443923,-0.36498 -1.411589,-1.09516 0.01409,-0.21099 0.09758,-0.52722 0.243491,-0.94916 l 0.267979,-0.73002 2.555385,-6.25482 0.267979,-0.65704 c 0.259423,-0.63278 0.389424,-1.1925 0.389424,-1.67933 0,-0.64898 -0.24349,-1.19251 -0.730208,-1.6305 -0.486714,-0.45447 -1.078781,-0.68148 -1.776466,-0.68148 z m 70.188878,0 c -2.92055,0 -5.44342,1.13567 -7.56892,3.40728 -2.10935,2.27146 -3.16385,4.97282 -3.16385,8.10431 0,2.43372 0.66516,4.28339 1.99568,5.5489 1.34663,1.2655 3.30173,1.89823 5.86528,1.89823 h 6.88744 c 1.298,0 2.30395,-0.27597 3.01785,-0.82737 0.73021,-0.55163 1.09516,-1.32234 1.09516,-2.31206 0,-1.4441 -1.02214,-2.16607 -3.06648,-2.16607 h -7.22821 c -1.83337,0 -2.75007,-0.60848 -2.75007,-1.82524 h 4.8674 c 1.96314,0 3.43969,-0.3 4.42942,-0.90057 1.78479,-1.05451 2.67706,-2.67705 2.67706,-4.86738 0,-1.81728 -0.64895,-3.27742 -1.94704,-4.38083 -1.28167,-1.11946 -2.98531,-1.6792 -5.11072,-1.6792 z M 9.1902975,239.0984 a 1.160998,1.160998 0 0 0 -1.1437959,0.96131 1.160998,1.160998 0 0 0 0.9443135,1.3434 1.160998,1.160998 0 0 0 1.3434109,-0.94676 1.160998,1.160998 0 0 0 -0.9465996,-1.34091 1.160998,1.160998 0 0 0 -0.197409,-0.0189 z m 88.0428595,2.71119 c 0.681458,0 1.233132,0.23548 1.654885,0.70578 0.421945,0.454 0.632752,1.04642 0.632752,1.77663 0,0.94103 -0.283984,2.00369 -0.85178,3.18819 -0.551674,1.18441 -1.200612,2.07673 -1.947036,2.67706 -0.535243,0.43799 -1.192465,0.65708 -1.971218,0.65708 -1.087099,0 -2.036259,-0.51924 -2.847436,-1.5576 l 1.630511,-4.0156 c 0.924796,-2.28763 2.157907,-3.43154 3.699322,-3.43154 z m 21.611503,0 c 0.68146,0 1.23314,0.23548 1.65507,0.70578 0.42195,0.454 0.63273,1.04642 0.63273,1.77663 0,0.94103 -0.28399,2.00369 -0.85185,3.18819 -0.55165,1.18441 -1.20071,2.07673 -1.94694,2.67706 -0.53546,0.43799 -1.19256,0.65708 -1.97133,0.65708 -1.08711,0 -2.03633,-0.51924 -2.84753,-1.5576 l 1.63061,-4.0156 c 0.92488,-2.28763 2.15794,-3.43154 3.69924,-3.43154 z m 19.59163,0.14601 c 1.0708,0 1.63053,0.42997 1.67927,1.2898 0.0484,0.76258 -0.79509,1.14385 -2.53114,1.14385 h -2.67706 c 0.85994,-1.62248 2.03626,-2.43365 3.52893,-2.43365 z M 9.63577,242.56393 a 1.6962835,1.6962835 0 0 0 -1.6745179,1.40665 1.6962835,1.6962835 0 0 0 1.3824738,1.95922 1.6962835,1.6962835 0 0 0 1.9615361,-1.3799 1.6962835,1.6962835 0 0 0 -1.3823664,-1.96157 1.6962835,1.6962835 0 0 0 -0.2873113,-0.0235 z m 20.377615,0.92732 h 2.020036 c 2.35258,0 3.999417,0.32447 4.940406,0.9734 0.957208,0.64898 1.436052,1.76855 1.436052,3.35854 0,1.34674 -0.365063,2.68529 -1.095267,4.01575 -0.713906,1.3304 -1.646731,2.37687 -2.798796,3.13945 -1.80093,1.20074 -4.437497,1.80098 -7.909621,1.80098 h -1.971293 z m -24.5417353,0.27503 a 1.989041,1.989041 0 0 0 -1.9615346,1.64754 1.989041,1.989041 0 0 0 1.6207523,2.29993 1.989041,1.989041 0 0 0 2.2998751,-1.61841 1.989041,1.989041 0 0 0 -1.6207779,-2.2999 1.989041,1.989041 0 0 0 -0.3381228,-0.0283 z m 3.5143258,2.55781 a 0.24179664,0.24179664 0 0 0 -0.2382786,0.20204 0.24179664,0.24179664 0 0 0 0.1973023,0.27974 0.24179664,0.24179664 0 0 0 0.2797331,-0.19732 0.24179664,0.24179664 0 0 0 -0.1968506,-0.27974 0.24179664,0.24179664 0 0 0 -0.042674,-0.004 z m -0.9371069,1.28745 a 1.6962835,1.6962835 0 0 0 -1.6718585,1.40435 1.6962835,1.6962835 0 0 0 1.3798933,1.96154 1.6962835,1.6962835 0 0 0 1.9616435,-1.37992 1.6962835,1.6962835 0 0 0 -1.37992,-1.96153 1.6962835,1.6962835 0 0 0 -0.2896783,-0.0235 z m -3.506926,1.82288 a 0.24179664,0.24179664 0 0 0 -0.2382881,0.20205 0.24179664,0.24179664 0 0 0 0.1973332,0.27975 0.24179664,0.24179664 0 0 0 0.2797021,-0.19734 0.24179664,0.24179664 0 0 0 -0.1973011,-0.27974 0.24179664,0.24179664 0 0 0 -0.042706,-0.004 z m 0.082529,1.04158 a 1.6962835,1.6962835 0 0 0 -1.6719673,1.40683 1.6962835,1.6962835 0 0 0 1.3799231,1.96158 1.6962835,1.6962835 0 0 0 1.9615346,-1.3824 1.6962835,1.6962835 0 0 0 -1.3799232,-1.96157 1.6962835,1.6962835 0 0 0 -0.2895672,-0.0235 z m 3.1297145,0.83491 a 0.24179664,0.24179664 0 0 0 -0.2382785,0.20204 0.24179664,0.24179664 0 0 0 0.1973289,0.27974 0.24179664,0.24179664 0 0 0 0.2798132,-0.19732 0.24179664,0.24179664 0 0 0 -0.1973289,-0.27976 0.24179664,0.24179664 0 0 0 -0.042674,-0.004 z m -1.0488938,2.79879 a 1.8342907,1.8342907 0 0 0 -1.8083251,1.51856 1.8342907,1.8342907 0 0 0 1.4920026,2.12222 1.8342907,1.8342907 0 0 0 2.1221717,-1.4943 1.8342907,1.8342907 0 0 0 -1.4943664,-2.11981 1.8342907,1.8342907 0 0 0 -0.311297,-0.0283 z m -3.0761667,0.1361 a 0.76473517,0.76473517 0 0 0 -0.7544741,0.63274 0.76473517,0.76473517 0 0 0 0.6204844,0.88596 0.76473517,0.76473517 0 0 0 0.8859976,-0.62303 0.76473517,0.76473517 0 0 0 -0.6230361,-0.88595 0.76473517,0.76473517 0 0 0 -0.1290465,-0.01 z m 0.7885214,1.31907 c -0.210967,0.29528 -0.5769671,0.46247 -0.9565476,0.39654 -0.096942,-0.0189 -0.181767,-0.0598 -0.2651075,-0.10218 a 2.3863192,2.3863192 0 0 0 -1.0198058,1.56481 2.3863192,2.3863192 0 0 0 1.9446871,2.75993 2.3863192,2.3863192 0 0 0 2.757364,-1.93728 c -0.1879422,0.0141 -0.3781445,0.0189 -0.5719641,-0.0189 -1.252949,-0.21759 -2.0963795,-1.41255 -1.8885193,-2.66501 z m 57.886268,3.12738 c -3.034069,0 -5.662579,1.12761 -7.885236,3.38288 -2.22279,2.25522 -3.334251,4.92423 -3.334251,8.00697 0,2.92059 1.087104,5.1271 3.261127,6.61975 0.924875,0.63279 2.70977,0.94917 5.354314,0.94917 1.622454,0 2.879978,-0.12151 3.772225,-0.36499 0.908657,-0.25949 1.784791,-0.72197 2.628511,-1.38724 1.265475,-1.02218 2.295889,-2.38512 3.090841,-4.08876 0.795166,-1.7197 1.19246,-3.44763 1.19246,-5.18377 0,-2.30386 -0.762436,-4.20225 -2.287621,-5.69495 -1.509071,-1.49278 -3.43979,-2.23906 -5.79237,-2.23906 z m 17.576513,0 c -1.606346,0 -2.871899,1.12761 -3.796695,3.38288 l -3.309892,8.12871 c -0.421942,1.03836 -0.632724,1.94702 -0.632724,2.7258 0,1.36286 0.470495,2.49041 1.41159,3.38283 0.94099,0.89246 2.125392,1.33855 3.553275,1.33855 h 3.553205 c 1.346624,0 2.46628,-0.52733 3.358526,-1.58189 0.454484,1.05456 1.362849,1.58189 2.725802,1.58189 h 4.356405 c 1.297992,0 2.303939,-0.27598 3.017843,-0.82743 0.730014,-0.56792 1.095192,-1.34659 1.095192,-2.33636 0,-0.76262 -0.235469,-1.30615 -0.705768,-1.63059 -0.470501,-0.3405 -1.265663,-0.51119 -2.385102,-0.51119 h -2.823179 l 3.526556,-8.66403 c 0.421934,-1.05457 0.632741,-1.83334 0.632741,-2.33636 0,-0.63278 -0.243509,-1.17631 -0.730122,-1.63065 -0.486825,-0.45447 -1.070807,-0.68147 -1.752265,-0.68147 -1.655002,0 -2.936774,1.13581 -3.845246,3.40728 l -3.042206,7.49587 c -0.665271,1.62251 -2.00384,2.43381 -4.015743,2.43381 -0.973219,0 -1.443923,-0.36498 -1.411589,-1.09516 0.01409,-0.21099 0.09758,-0.52732 0.243517,-0.94925 l 0.270323,-0.73008 2.552933,-6.25467 0.270353,-0.65718 c 0.259495,-0.63273 0.389494,-1.19251 0.389494,-1.6792 0,-0.64897 -0.243488,-1.19251 -0.730094,-1.63064 -0.48672,-0.45447 -1.07897,-0.68147 -1.776652,-0.68147 z m 33.575712,0 c -1.57373,0 -3.22882,0.66518 -4.96468,1.99573 -0.53545,-1.10342 -1.42789,-1.65504 -2.67715,-1.65504 -1.52529,0 -2.60416,0.78692 -3.23688,2.36081 l -4.916221,12.11992 -0.26751,0.65717 c -0.259524,0.63279 -0.389531,1.17631 -0.389531,1.63064 0,0.61653 0.24352,1.13566 0.730132,1.55755 0.486719,0.42196 1.078964,0.63278 1.77665,0.63278 1.70363,0 2.98542,-1.07087 3.84543,-3.21249 l 2.87163,-7.0579 c 1.02225,-2.51481 2.36898,-3.77236 4.03999,-3.77236 0.51924,0 0.9411,0.13799 1.26566,0.41398 0.34002,0.27598 0.50246,0.60846 0.4868,0.99786 -0.0141,0.3405 -0.13805,0.78687 -0.36506,1.33851 l -2.14158,5.30555 c -0.45449,1.1034 -0.68149,1.93079 -0.68149,2.48241 0,0.90863 0.33255,1.66314 0.99789,2.26338 0.68128,0.60037 1.51694,0.90041 2.50667,0.90041 h 5.0865 c 1.28169,0 2.28783,-0.27598 3.01785,-0.82743 0.7301,-0.55162 1.09517,-1.3223 1.09517,-2.31206 0,-1.44395 -1.03042,-2.16607 -3.09085,-2.16607 h -2.92048 l 2.65279,-6.54671 c 0.35701,-0.89247 0.53545,-1.71174 0.53545,-2.45801 0,-1.34676 -0.49495,-2.45812 -1.4846,-3.33424 -0.98973,-0.87621 -2.24712,-1.31425 -3.7724,-1.31425 z m 40.79911,0 c -2.92056,0 -5.44345,1.13571 -7.56884,3.40728 -2.10926,2.27146 -3.16397,4.97296 -3.16397,8.10431 0,2.43371 0.66536,4.28339 1.9958,5.54889 1.34662,1.26565 3.30162,1.89829 5.86519,1.89829 h 6.88764 c 1.29789,0 2.30384,-0.27598 3.01774,-0.82743 0.7301,-0.55162 1.09517,-1.3223 1.09517,-2.31206 0,-1.44395 -1.02224,-2.16608 -3.06656,-2.16608 h -7.22816 c -1.83353,0 -2.75016,-0.60832 -2.75016,-1.82522 h 4.8676 c 1.96315,0 3.43968,-0.3 4.42923,-0.90052 1.78481,-1.05471 2.67724,-2.67705 2.67724,-4.86743 0,-1.81728 -0.64905,-3.27752 -1.94702,-4.38069 -1.28169,-1.11956 -2.98533,-1.67934 -5.1109,-1.67934 z m -20.75964,4.81883 c 0.64894,0 1.1844,0.162 1.60615,0.48673 0.43808,0.32449 0.65721,0.73017 0.65721,1.2169 0,0.25951 -0.0806,0.59213 -0.24349,0.99787 l -1.97143,4.81869 c -0.35698,0.85991 -1.22497,1.28989 -2.60404,1.28989 -1.59012,0 -2.3851,-0.85191 -2.3851,-2.55541 0,-1.4927 0.5274,-2.90424 1.58191,-4.23465 1.07088,-1.34664 2.19032,-2.02002 3.3586,-2.02002 z m 20.54058,0.14599 c 1.07054,0 1.63035,0.42998 1.67937,1.28981 0.0484,0.76262 -0.79496,1.1439 -2.53112,1.1439 h -2.67706 c 0.85992,-1.62253 2.03618,-2.43371 3.52881,-2.43371 z m -92.316284,0.219 c 0.859941,0 1.557626,0.28398 2.092974,0.85172 0.535457,0.56793 0.803118,1.31421 0.803118,2.23907 0,1.6063 -0.551464,3.03404 -1.654896,4.28335 -0.665164,0.76262 -1.614502,1.14391 -2.847536,1.14391 -2.109275,0 -3.163779,-0.94102 -3.163779,-2.82311 0,-1.42775 0.494772,-2.7339 1.484608,-3.9184 0.989544,-1.18441 2.084917,-1.77654 3.285511,-1.77654 z m 62.503154,19.76184 h 4.21038 c -1.03847,2.33637 -1.99576,3.96701 -2.87181,4.89182 -0.87624,0.92487 -1.8983,1.38725 -3.06656,1.38725 -0.81121,0 -1.49267,-0.26797 -2.04435,-0.80307 -0.55165,-0.53543 -0.82747,-1.18441 -0.82747,-1.94697 0,-1.11961 0.39748,-1.98777 1.19254,-2.60421 0.81128,-0.61653 1.94704,-0.92482 3.40727,-0.92482 z m -97.288581,0.65717 h 6.400762 c -0.876162,2.04443 -1.987623,3.65873 -3.334279,4.84314 -1.330408,1.20056 -2.717641,1.80094 -4.161536,1.80094 -1.054877,0 -1.930825,-0.3165 -2.62851,-0.94913 -0.697977,-0.61657 -1.046447,-1.38739 -1.046447,-2.31211 0,-2.25526 1.589853,-3.38284 4.77001,-3.38284 z"
         id="path3843"
         inkscape:connector-curvature="0" />
    </g>
    <g
       style="fill:#31bef5;fill-opacity:1;stroke:none"
       id="Layer_1-2"
       transform="matrix(-0.02216923,0.06717637,0.06717637,0.02216923,361.05784,-25.689133)" />
    <g
       id="g3833"
       transform="rotate(12.409383,398.98973,-48.354424)">
      <g
         id="text3770"
         style="font-style:normal;font-variant:normal;font-weight:normal;font-stretch:normal;font-size:8.42369366px;line-height:1.25;font-family:'Montserrat ExtraBold';-inkscape-font-specification:'Montserrat ExtraBold, ';letter-spacing:0px;word-spacing:0px;fill:#31bef5;fill-opacity:1;stroke:none;stroke-width:0.21059233;filter:url(#filter3840)"
         transform="matrix(0.55688752,0.03023053,-0.03023053,0.55688752,118.80638,-34.742172)"
         aria-label="3D Printed">
        <path
           inkscape:connector-curvature="0"
           id="path3925"
           style="font-style:normal;font-variant:normal;font-weight:normal;font-stretch:normal;font-family:'Montserrat ExtraBold';-inkscape-font-specification:'Montserrat ExtraBold, ';fill:#31bef5;fill-opacity:1;stroke-width:0.21059233"
           d="m 439.66763,2.4593398 q 0.73286,0.1516264 1.12035,0.6065059 0.39591,0.4464558 0.39591,1.0866565 0,0.522269 -0.2864,0.9687247 -0.27798,0.4464558 -0.85922,0.7244377 -0.57281,0.2695582 -1.4236,0.2695582 -0.62336,0 -1.23829,-0.1516265 -0.6065,-0.1516265 -1.05296,-0.4296084 l 0.60651,-1.2551303 q 0.34537,0.2358634 0.77498,0.3622188 0.43803,0.1263554 0.85921,0.1263554 0.42961,0 0.68232,-0.1600502 0.25271,-0.1600501 0.25271,-0.4548794 0,-0.5728112 -0.90133,-0.5728112 h -0.69917 V 2.5267293 l 1.05296,-1.1371986 h -2.32494 V 0.10070553 h 4.26239 V 1.1452435 Z" />
        <path
           inkscape:connector-curvature="0"
           id="path3927"
           style="font-style:normal;font-variant:normal;font-weight:normal;font-stretch:normal;font-family:'Montserrat ExtraBold';-inkscape-font-specification:'Montserrat ExtraBold, ';fill:#31bef5;fill-opacity:1;stroke-width:0.21059233"
           d="m 442.03061,0.10070553 h 2.78824 q 0.96872,0 1.71843,0.36221883 0.74971,0.36221882 1.16247,1.02769064 0.41276,0.6654718 0.41276,1.5583833 0,0.8929115 -0.41276,1.5583833 -0.41276,0.6654718 -1.16247,1.0276907 -0.74971,0.3622188 -1.71843,0.3622188 h -2.78824 z m 2.72085,4.56564197 q 0.75813,0 1.21301,-0.4296084 0.4633,-0.4296084 0.4633,-1.1877408 0,-0.7581324 -0.4633,-1.1877408 -0.45488,-0.4296084 -1.21301,-0.4296084 h -1.05296 v 3.2346984 z" />
        <path
           inkscape:connector-curvature="0"
           id="path3929"
           style="font-style:normal;font-variant:normal;font-weight:normal;font-stretch:normal;font-family:'Montserrat ExtraBold';-inkscape-font-specification:'Montserrat ExtraBold, ';fill:#31bef5;fill-opacity:1;stroke-width:0.21059233"
           d="m 454.13703,0.10070553 q 0.80025,0 1.38991,0.2695582 0.58966,0.2611345 0.90976,0.75813247 0.3201,0.4885742 0.3201,1.154046 0,0.6654718 -0.3201,1.154046 -0.3201,0.4885742 -0.90976,0.7581324 -0.58966,0.2611345 -1.38991,0.2611345 h -1.02769 v 1.541536 h -1.66789 V 0.10070553 Z m -0.10108,3.04095337 q 0.51384,0 0.77498,-0.219016 0.26113,-0.2274397 0.26113,-0.6402007 0,-0.412761 -0.26113,-0.6402007 -0.26114,-0.2274398 -0.77498,-0.2274398 h -0.92661 v 1.7268572 z" />
        <path
           inkscape:connector-curvature="0"
           id="path3931"
           style="font-style:normal;font-variant:normal;font-weight:normal;font-stretch:normal;font-family:'Montserrat ExtraBold';-inkscape-font-specification:'Montserrat ExtraBold, ';fill:#31bef5;fill-opacity:1;stroke-width:0.21059233"
           d="m 459.04357,1.9791892 q 0.24429,-0.3116767 0.63178,-0.4633031 0.39591,-0.1600502 0.90133,-0.1600502 v 1.4404516 q -0.21901,-0.025271 -0.36222,-0.025271 -0.51384,0 -0.80867,0.2779819 -0.28641,0.2779819 -0.28641,0.8507931 v 2.0974997 h -1.6005 v -4.565642 h 1.52469 z" />
        <path
           inkscape:connector-curvature="0"
           id="path3933"
           style="font-style:normal;font-variant:normal;font-weight:normal;font-stretch:normal;font-family:'Montserrat ExtraBold';-inkscape-font-specification:'Montserrat ExtraBold, ';fill:#31bef5;fill-opacity:1;stroke-width:0.21059233"
           d="m 461.23715,1.4316491 h 1.60051 v 4.565642 h -1.60051 z m 0.80025,-0.50542159 q -0.43803,0 -0.70759,-0.24428712 -0.26955,-0.24428712 -0.26955,-0.60650594 0,-0.36221883 0.26955,-0.60650595 0.26956,-0.24428711 0.70759,-0.24428711 0.43804,0 0.7076,0.23586342 0.26955,0.22743973 0.26955,0.58965856 0,0.37906621 -0.26955,0.63177702 -0.26956,0.24428712 -0.7076,0.24428712 z" />
        <path
           inkscape:connector-curvature="0"
           id="path3935"
           style="font-style:normal;font-variant:normal;font-weight:normal;font-stretch:normal;font-family:'Montserrat ExtraBold';-inkscape-font-specification:'Montserrat ExtraBold, ';fill:#31bef5;fill-opacity:1;stroke-width:0.21059233"
           d="m 466.84312,1.3558359 q 0.8508,0 1.36464,0.5054216 0.52227,0.5054216 0.52227,1.5246886 v 2.611345 h -1.6005 V 3.6470806 q 0,-0.93503 -0.74971,-0.93503 -0.41276,0 -0.66547,0.2695582 -0.24429,0.2695582 -0.24429,0.8086745 v 2.2070078 h -1.6005 v -4.565642 h 1.52469 v 0.496998 q 0.26955,-0.2779819 0.6402,-0.4211847 0.37064,-0.1516265 0.80867,-0.1516265 z" />
        <path
           inkscape:connector-curvature="0"
           id="path3937"
           style="font-style:normal;font-variant:normal;font-weight:normal;font-stretch:normal;font-family:'Montserrat ExtraBold';-inkscape-font-specification:'Montserrat ExtraBold, ';fill:#31bef5;fill-opacity:1;stroke-width:0.21059233"
           d="m 472.87712,5.8119698 q -0.20217,0.1263554 -0.497,0.193745 -0.2864,0.067389 -0.61493,0.067389 -0.89291,0 -1.37306,-0.438032 -0.48015,-0.4380321 -0.48015,-1.3056726 V 2.7962875 h -0.66547 V 1.600123 h 0.66547 V 0.41238219 h 1.6005 V 1.600123 h 1.04454 v 1.1961645 h -1.04454 v 1.5162649 q 0,0.2442871 0.12636,0.3874899 0.13478,0.1347791 0.35379,0.1347791 0.27799,0 0.48858,-0.1432028 z" />
        <path
           inkscape:connector-curvature="0"
           id="path3939"
           style="font-style:normal;font-variant:normal;font-weight:normal;font-stretch:normal;font-family:'Montserrat ExtraBold';-inkscape-font-specification:'Montserrat ExtraBold, ';fill:#31bef5;fill-opacity:1;stroke-width:0.21059233"
           d="m 478.02939,3.7228938 q 0,0.016847 -0.0253,0.3959136 h -3.31894 q 0.10109,0.3537951 0.38749,0.5475401 0.29483,0.1853213 0.73287,0.1853213 0.32852,0 0.56438,-0.092661 0.24429,-0.092661 0.48858,-0.303253 l 0.84237,0.8760642 q -0.66547,0.741285 -1.94588,0.741285 -0.80025,0 -1.40675,-0.3032529 -0.60651,-0.303253 -0.94346,-0.8423694 -0.32852,-0.5391164 -0.32852,-1.2214356 0,-0.6738955 0.3201,-1.2045882 0.32852,-0.5391164 0.90134,-0.8423693 0.57281,-0.303253 1.28882,-0.303253 0.68232,0 1.23828,0.2864056 0.55597,0.2779819 0.87607,0.8170983 0.32852,0.5306927 0.32852,1.263554 z m -2.43445,-1.2298593 q -0.37064,0 -0.62335,0.2105924 -0.24429,0.2105923 -0.31168,0.5728111 h 1.87006 q -0.0674,-0.3622188 -0.3201,-0.5728111 -0.24428,-0.2105924 -0.61493,-0.2105924 z" />
        <path
           inkscape:connector-curvature="0"
           id="path3941"
           style="font-style:normal;font-variant:normal;font-weight:normal;font-stretch:normal;font-family:'Montserrat ExtraBold';-inkscape-font-specification:'Montserrat ExtraBold, ';fill:#31bef5;fill-opacity:1;stroke-width:0.21059233"
           d="M 483.6276,-0.25308961 V 5.9972911 h -1.52469 V 5.5424116 q -0.44646,0.5306927 -1.33937,0.5306927 -0.62335,0 -1.1372,-0.2864056 -0.51384,-0.2948292 -0.8171,-0.8339456 -0.29483,-0.5391164 -0.29483,-1.2467067 0,-0.7075903 0.29483,-1.238283 0.30326,-0.5391163 0.8171,-0.8255219 0.51385,-0.2864056 1.1372,-0.2864056 0.8171,0 1.26355,0.4717268 v -2.08065231 z m -2.52711,5.05421621 q 0.41276,0 0.68232,-0.2864056 0.26956,-0.2948293 0.26956,-0.8086746 0,-0.5054216 -0.26956,-0.7918272 -0.26114,-0.2864056 -0.68232,-0.2864056 -0.42119,0 -0.69074,0.2864056 -0.26956,0.2864056 -0.26956,0.7918272 0,0.5138453 0.26956,0.8086746 0.26955,0.2864056 0.69074,0.2864056 z" />
      </g>
      <g
         inkscape:export-ydpi="96"
         inkscape:export-xdpi="96"
         id="text3734"
         style="font-style:normal;font-variant:normal;font-weight:normal;font-stretch:normal;font-size:4.69795656px;line-height:1.25;font-family:'Montserrat ExtraBold';-inkscape-font-specification:'Montserrat ExtraBold, ';letter-spacing:0px;word-spacing:0px;fill:#adff2f;fill-opacity:1;stroke:none;stroke-width:0.11744891"
         transform="rotate(3.1072403,-603.44456,79.252069)"
         aria-label="3D Printed">
        <path
           inkscape:connector-curvature="0"
           id="path3906"
           style="font-style:normal;font-variant:normal;font-weight:normal;font-stretch:normal;font-family:'Montserrat ExtraBold';-inkscape-font-specification:'Montserrat ExtraBold, ';fill:#adff2f;fill-opacity:1;stroke-width:0.11744891"
           d="m 356.77144,-72.352597 q 0.40872,0.08456 0.62483,0.338253 0.2208,0.248991 0.2208,0.606036 0,0.291273 -0.15973,0.540265 -0.15503,0.248992 -0.47919,0.404024 -0.31946,0.150335 -0.79396,0.150335 -0.34765,0 -0.6906,-0.08456 -0.33825,-0.08456 -0.58724,-0.239596 l 0.33825,-0.699996 q 0.19262,0.131543 0.43221,0.202012 0.2443,0.07047 0.4792,0.07047 0.23959,0 0.38053,-0.08926 0.14094,-0.08926 0.14094,-0.25369 0,-0.319461 -0.50268,-0.319461 h -0.38993 v -0.587245 l 0.58724,-0.634224 h -1.29664 v -0.718787 h 2.37717 v 0.582546 z" />
        <path
           inkscape:connector-curvature="0"
           id="path3908"
           style="font-style:normal;font-variant:normal;font-weight:normal;font-stretch:normal;font-family:'Montserrat ExtraBold';-inkscape-font-specification:'Montserrat ExtraBold, ';fill:#adff2f;fill-opacity:1;stroke-width:0.11744891"
           d="m 358.08929,-73.668025 h 1.55502 q 0.54027,0 0.95838,0.202012 0.41812,0.202012 0.64832,0.573151 0.2302,0.371138 0.2302,0.869122 0,0.497983 -0.2302,0.869122 -0.2302,0.371138 -0.64832,0.57315 -0.41811,0.202012 -0.95838,0.202012 h -1.55502 z m 1.51744,2.546292 q 0.42281,0 0.6765,-0.239595 0.25839,-0.239596 0.25839,-0.662412 0,-0.422816 -0.25839,-0.662412 -0.25369,-0.239596 -0.6765,-0.239596 h -0.58725 v 1.804015 z" />
        <path
           inkscape:connector-curvature="0"
           id="path3910"
           style="font-style:normal;font-variant:normal;font-weight:normal;font-stretch:normal;font-family:'Montserrat ExtraBold';-inkscape-font-specification:'Montserrat ExtraBold, ';fill:#adff2f;fill-opacity:1;stroke-width:0.11744891"
           d="m 364.84113,-73.668025 q 0.44631,0 0.77517,0.150334 0.32885,0.145637 0.50737,0.422817 0.17853,0.272481 0.17853,0.64362 0,0.371138 -0.17853,0.64362 -0.17852,0.272481 -0.50737,0.422816 -0.32886,0.145636 -0.77517,0.145636 h -0.57315 v 0.859726 h -0.93019 v -3.288569 z m -0.0564,1.695962 q 0.28657,0 0.43221,-0.122147 0.14564,-0.126845 0.14564,-0.357044 0,-0.2302 -0.14564,-0.357045 -0.14564,-0.126845 -0.43221,-0.126845 h -0.51678 v 0.963081 z" />
        <path
           inkscape:connector-curvature="0"
           id="path3912"
           style="font-style:normal;font-variant:normal;font-weight:normal;font-stretch:normal;font-family:'Montserrat ExtraBold';-inkscape-font-specification:'Montserrat ExtraBold, ';fill:#adff2f;fill-opacity:1;stroke-width:0.11744891"
           d="m 367.57754,-72.620381 q 0.13625,-0.173824 0.35235,-0.258387 0.22081,-0.08926 0.50268,-0.08926 v 0.803351 q -0.12214,-0.01409 -0.20201,-0.01409 -0.28657,0 -0.451,0.155033 -0.15973,0.155032 -0.15973,0.474493 v 1.169791 h -0.89262 v -2.546292 h 0.85033 z" />
        <path
           inkscape:connector-curvature="0"
           id="path3914"
           style="font-style:normal;font-variant:normal;font-weight:normal;font-stretch:normal;font-family:'Montserrat ExtraBold';-inkscape-font-specification:'Montserrat ExtraBold, ';fill:#adff2f;fill-opacity:1;stroke-width:0.11744891"
           d="m 368.80092,-72.925748 h 0.89261 v 2.546292 h -0.89261 z m 0.44631,-0.281877 q -0.2443,0 -0.39463,-0.136241 -0.15033,-0.136241 -0.15033,-0.338253 0,-0.202012 0.15033,-0.338253 0.15033,-0.136241 0.39463,-0.136241 0.24429,0 0.39463,0.131543 0.15033,0.126845 0.15033,0.328857 0,0.211408 -0.15033,0.352347 -0.15034,0.136241 -0.39463,0.136241 z" />
        <path
           inkscape:connector-curvature="0"
           id="path3916"
           style="font-style:normal;font-variant:normal;font-weight:normal;font-stretch:normal;font-family:'Montserrat ExtraBold';-inkscape-font-specification:'Montserrat ExtraBold, ';fill:#adff2f;fill-opacity:1;stroke-width:0.11744891"
           d="m 371.92741,-72.96803 q 0.4745,0 0.76107,0.281878 0.29127,0.281877 0.29127,0.85033 v 1.456366 h -0.89261 v -1.310729 q 0,-0.521474 -0.41812,-0.521474 -0.2302,0 -0.37113,0.150335 -0.13624,0.150335 -0.13624,0.451004 v 1.230864 h -0.89262 v -2.546292 h 0.85033 v 0.277179 q 0.15034,-0.155032 0.35705,-0.234897 0.20671,-0.08456 0.451,-0.08456 z" />
        <path
           inkscape:connector-curvature="0"
           id="path3918"
           style="font-style:normal;font-variant:normal;font-weight:normal;font-stretch:normal;font-family:'Montserrat ExtraBold';-inkscape-font-specification:'Montserrat ExtraBold, ';fill:#adff2f;fill-opacity:1;stroke-width:0.11744891"
           d="m 375.29262,-70.482811 q -0.11275,0.07047 -0.27718,0.108053 -0.15973,0.03758 -0.34295,0.03758 -0.49799,0 -0.76577,-0.244294 -0.26778,-0.244293 -0.26778,-0.728183 v -0.855028 h -0.37114 v -0.66711 h 0.37114 v -0.662412 h 0.89261 v 0.662412 h 0.58255 v 0.66711 h -0.58255 v 0.845632 q 0,0.136241 0.0705,0.216106 0.0752,0.07517 0.19731,0.07517 0.15503,0 0.27248,-0.07987 z" />
        <path
           inkscape:connector-curvature="0"
           id="path3920"
           style="font-style:normal;font-variant:normal;font-weight:normal;font-stretch:normal;font-family:'Montserrat ExtraBold';-inkscape-font-specification:'Montserrat ExtraBold, ';fill:#adff2f;fill-opacity:1;stroke-width:0.11744891"
           d="m 378.16608,-71.647904 q 0,0.0094 -0.0141,0.220804 h -1.85099 q 0.0564,0.197314 0.21611,0.305367 0.16442,0.103355 0.40872,0.103355 0.18322,0 0.31476,-0.05168 0.13624,-0.05168 0.27248,-0.169127 l 0.4698,0.488588 q -0.37114,0.41342 -1.08523,0.41342 -0.44631,0 -0.78456,-0.169126 -0.33825,-0.169127 -0.52617,-0.469796 -0.18322,-0.300669 -0.18322,-0.681204 0,-0.375836 0.17852,-0.671808 0.18322,-0.300669 0.50268,-0.469795 0.31946,-0.169127 0.71879,-0.169127 0.38053,0 0.6906,0.159731 0.31007,0.155032 0.48859,0.455702 0.18322,0.295971 0.18322,0.704693 z m -1.35771,-0.685901 q -0.20671,0 -0.34765,0.117448 -0.13624,0.117449 -0.17382,0.319461 h 1.04294 q -0.0376,-0.202012 -0.17852,-0.319461 -0.13624,-0.117448 -0.34295,-0.117448 z" />
        <path
           inkscape:connector-curvature="0"
           id="path3922"
           style="font-style:normal;font-variant:normal;font-weight:normal;font-stretch:normal;font-family:'Montserrat ExtraBold';-inkscape-font-specification:'Montserrat ExtraBold, ';fill:#adff2f;fill-opacity:1;stroke-width:0.11744891"
           d="m 381.28824,-73.865339 v 3.485883 h -0.85033 v -0.253689 q -0.24899,0.295971 -0.74698,0.295971 -0.34765,0 -0.63422,-0.15973 -0.28658,-0.164429 -0.4557,-0.465098 -0.16443,-0.300669 -0.16443,-0.695298 0,-0.394628 0.16443,-0.690599 0.16912,-0.30067 0.4557,-0.4604 0.28657,-0.159731 0.63422,-0.159731 0.4557,0 0.7047,0.263086 v -1.160395 z m -1.40939,2.818774 q 0.2302,0 0.38053,-0.159731 0.15034,-0.164428 0.15034,-0.451004 0,-0.281877 -0.15034,-0.441608 -0.14563,-0.15973 -0.38053,-0.15973 -0.2349,0 -0.38523,0.15973 -0.15034,0.159731 -0.15034,0.441608 0,0.286576 0.15034,0.451004 0.15033,0.159731 0.38523,0.159731 z" />
      </g>
    </g>
    <g
       id="swirly-arrow-silhouette-clip-art-13"
       transform="matrix(-0.26458335,0,0,0.26458335,384.09345,74.949885)" />
    <g
       id="Layer_1"
       transform="matrix(-0.26458335,0,0,0.26458335,384.09345,74.949885)" />
    <flowRoot
       xml:space="preserve"
       id="flowRoot3864"
       style="fill:black;fill-opacity:1;stroke:none;font-family:sans-serif;font-style:normal;font-weight:normal;font-size:40px;line-height:1.25;letter-spacing:0px;word-spacing:0px"><flowRegion
         id="flowRegion3866"><rect
           id="rect3868"
           width="111.42857"
           height="54.285713"
           x="428.57141"
           y="231.42857" /></flowRegion><flowPara
         id="flowPara3870" /></flowRoot>    <flowRoot
       xml:space="preserve"
       id="flowRoot4140"
       style="fill:black;fill-opacity:1;stroke:none;font-family:sans-serif;font-style:normal;font-weight:normal;font-size:40px;line-height:1.25;letter-spacing:0px;word-spacing:0px"><flowRegion
         id="flowRegion4142"><rect
           id="rect4144"
           width="299.00516"
           height="129.29953"
           x="250.51784"
           y="821.40094" /></flowRegion><flowPara
         id="flowPara4146" /></flowRoot>  </g>
</svg>
