<?xml version="1.0" encoding="UTF-8" standalone="no"?>
<!-- Created with Inkscape (http://www.inkscape.org/) -->

<svg
   xmlns:dc="http://purl.org/dc/elements/1.1/"
   xmlns:cc="http://creativecommons.org/ns#"
   xmlns:rdf="http://www.w3.org/1999/02/22-rdf-syntax-ns#"
   xmlns:svg="http://www.w3.org/2000/svg"
   xmlns="http://www.w3.org/2000/svg"
   xmlns:sodipodi="http://sodipodi.sourceforge.net/DTD/sodipodi-0.dtd"
   xmlns:inkscape="http://www.inkscape.org/namespaces/inkscape"
   width="1920"
   height="1080"
   viewBox="0 0 508.00001 285.75002"
   version="1.1"
   id="svg8"
   inkscape:version="0.92.2 (5c3e80d, 2017-08-06)"
   sodipodi:docname="Zeichnung.svg">
  <defs
     id="defs2">
    <filter
       inkscape:collect="always"
       style="color-interpolation-filters:sRGB"
       id="filter3836"
       x="-0.038183178"
       width="1.0763664"
       y="-0.11331724"
       height="1.2266345">
      <feGaussianBlur
         inkscape:collect="always"
         stdDeviation="7.0803299"
         id="feGaussianBlur3838" />
    </filter>
    <filter
       inkscape:collect="always"
       style="color-interpolation-filters:sRGB"
       id="filter3840"
       x="-0.045564174"
       width="1.0911283"
       y="-0.31280026"
       height="1.6256005">
      <feGaussianBlur
         inkscape:collect="always"
         stdDeviation="0.89807319"
         id="feGaussianBlur3842" />
    </filter>
  </defs>
  <sodipodi:namedview
     id="base"
     pagecolor="#ffffff"
     bordercolor="#666666"
     borderopacity="1.0"
     inkscape:pageopacity="0.0"
     inkscape:pageshadow="2"
     inkscape:zoom="1.4"
     inkscape:cx="1238.2268"
     inkscape:cy="692.1915"
     inkscape:document-units="px"
     inkscape:current-layer="layer1"
     showgrid="false"
     inkscape:window-width="1920"
     inkscape:window-height="1017"
     inkscape:window-x="-8"
     inkscape:window-y="-8"
     inkscape:window-maximized="1"
     units="px"
     showguides="false" />
  <metadata
     id="metadata5">
    <rdf:RDF>
      <cc:Work
         rdf:about="">
        <dc:format>image/svg+xml</dc:format>
        <dc:type
           rdf:resource="http://purl.org/dc/dcmitype/StillImage" />
        <dc:title />
      </cc:Work>
    </rdf:RDF>
  </metadata>
  <g
     inkscape:label="Ebene 1"
     inkscape:groupmode="layer"
     id="layer1"
     transform="translate(-91.377253,86.04696)">
    <g
       style="opacity:0.219"
       transform="matrix(-1.1989619,0.97140487,-0.97140487,-1.1989619,880.36709,359.75126)"
       id="g4138">
      <path
         inkscape:connector-curvature="0"
         id="path4136"
         d="m 27.652723,222.72976 -0.657188,0.002 c -1.070801,0 -1.979456,0.3405 -2.725801,1.02217 -0.746319,0.66526 -1.119439,1.48454 -1.119439,2.4581 0,1.5576 0.908655,2.33637 2.725805,2.33637 h 0.657001 2.750159 c -4.460441,7.01489 -12.383703,40.59643 -19.739945,40.71393 -3.8985357,0.19592 -5.0870831,-5.95948 -3.6652516,-8.73709 -0.55992,0.28306 -1.2054622,0.4041 -1.8666346,0.28964 -0.980826,-0.16954 -1.7646071,-0.80598 -2.1806691,-1.63784 l -0.2703496,-0.01 c -7.0735565,15.80059 11.8592589,20.17591 17.7199919,9.43801 0.648944,-1.03836 1.541405,-2.815 2.677144,-5.32995 l 0.291965,-0.68134 h 3.577556 c 5.4678,0 9.55664,-0.87626 12.266118,-2.62845 2.0119,-1.29805 3.626216,-3.02607 4.84303,-5.18391 1.233034,-2.17416 1.849751,-4.3888 1.849751,-6.64406 0,-3.52078 -1.484688,-6.00333 -4.453877,-7.44728 2.19043,-0.76248 3.934747,-2.03632 5.232636,-3.82097 1.314109,-1.78487 1.971322,-3.79666 1.971322,-6.03558 0,-2.59596 -0.867891,-4.59164 -2.604152,-5.98699 -1.736049,-1.41154 -4.202329,-2.11732 -7.398629,-2.11732 z m 33.999169,0 c -1.638673,0 -2.83121,0.90848 -3.577555,2.72576 l -0.267476,0.65707 -9.289619,22.85768 c -0.182731,0.39607 -0.365914,0.7823 -0.552527,1.24356 L 35.72069,278.47926 h -8.591164 c -3.034067,0 -5.435387,0.51113 -7.203769,1.53329 -1.362956,0.79512 -2.441818,1.90633 -3.236983,3.33424 -0.794953,1.42774 -1.192456,2.9609 -1.192456,4.59973 0,2.62845 0.932931,4.79438 2.798822,6.49802 1.849537,1.7035 4.202142,2.55546 7.057736,2.55546 3.520755,0 6.635979,-1.24122 9.345564,-3.72367 1.038471,-0.95722 1.881899,-1.94698 2.531135,-2.96913 0.648944,-1.02212 1.541299,-2.79867 2.677038,-5.32991 l 0.292045,-0.68139 h 18.107043 c 0.458184,0 0.87196,-0.0424 1.265475,-0.10973 l 55.163014,-0.49403 c -0.52842,1.10137 -0.80558,2.25776 -0.80558,3.47543 0,2.32015 0.83556,4.25093 2.50675,5.79223 1.655,1.5414 3.73165,2.31206 6.23045,2.31206 4.77001,0 8.39623,-3.04213 10.8787,-9.12661 l 1.02218,-2.50671 h 4.03998 c 1.28178,0 2.28765,-0.28399 3.01786,-0.85182 0.73001,-0.55163 1.09516,-1.3223 1.09516,-2.31197 0,-1.42775 -1.03024,-2.14172 -3.09084,-2.14172 h -2.92048 l 6.10861,-15.04047 c 0.42204,-1.03836 0.63272,-1.80917 0.63272,-2.3121 0,-0.63273 -0.24348,-1.16807 -0.73001,-1.6062 -0.4705,-0.45447 -1.04642,-0.68147 -1.72791,-0.68147 -1.39538,0 -2.47432,0.64898 -3.23696,1.94702 -0.98966,-1.29804 -2.4824,-1.94702 -4.47797,-1.94702 -2.726,0 -5.18392,1.24921 -7.37427,3.74796 -2.19035,2.49861 -3.28551,5.3055 -3.28551,8.42071 0,1.93076 0.53546,3.49647 1.60625,4.69716 1.08701,1.20061 2.4986,1.80094 4.23466,1.80094 0.90858,0 1.87403,-0.308 2.8961,-0.92482 l -0.75448,1.89829 h -5.23248 c -0.93577,0 -1.78641,0.0682 -2.5992,0.16814 H 59.902096 c -0.156831,-0.01 -0.307494,-0.0235 -0.476956,-0.0235 H 42.559319 c 3.751539,-9.41757 7.551471,-18.56015 11.363131,-27.75426 0.03318,-0.033 0.05214,-0.0495 0.08725,-0.0805 l 9.467298,-23.29081 0.267502,-0.65709 c 0.24349,-0.61652 0.364956,-1.16815 0.364956,-1.65502 0,-0.63273 -0.243491,-1.17603 -0.730205,-1.6306 -0.470494,-0.45446 -1.046447,-0.68133 -1.727912,-0.68133 z m 37.211882,0.002 c -1.590121,0 -2.766465,0.90862 -3.528925,2.72575 l -0.267959,0.68148 -10.197339,25.14054 -0.26748,0.65703 c -0.259524,0.63278 -0.389526,1.1926 -0.389526,1.67933 0,0.64894 0.24349,1.20057 0.730125,1.65491 0.486611,0.45446 1.078947,0.68147 1.776629,0.68147 1.460247,0 2.530949,-0.57594 3.212412,-1.72794 1.135848,1.152 2.506857,1.72794 4.113121,1.72794 h 2.312075 c 1.265471,0 2.482397,-0.42198 3.650583,-1.26552 3.34223,-2.4176 5.01342,-5.79234 5.01342,-10.12433 0,-2.23906 -0.58409,-4.0562 -1.75236,-5.45155 -1.16809,-1.4117 -2.69317,-2.11748 -4.575257,-2.11748 -0.567786,0 -1.216915,0.11116 -1.94694,0.33816 l 4.039997,-9.9272 0.26748,-0.68147 c 0.25952,-0.61644 0.38944,-1.17631 0.38944,-1.67924 0,-0.64907 -0.25147,-1.1926 -0.7544,-1.63059 -0.4868,-0.45447 -1.095273,-0.68148 -1.825288,-0.68148 z m 21.611496,0 c -1.59003,0 -2.76627,0.90862 -3.52892,2.72575 l -0.26747,0.68148 -10.19734,25.14054 -0.26796,0.65703 c -0.25953,0.63278 -0.38953,1.1926 -0.38953,1.67933 0,0.64894 0.24348,1.20057 0.73021,1.65491 0.48671,0.45446 1.07886,0.68147 1.77647,0.68147 1.4603,0 2.5312,-0.57594 3.21267,-1.72794 1.13567,1.152 2.50668,1.72794 4.11302,1.72794 h 2.312 c 1.26548,0 2.48239,-0.42198 3.65057,-1.26552 3.34231,-2.4176 5.01342,-5.79234 5.01342,-10.12433 0,-2.23906 -0.58398,-4.0562 -1.75219,-5.45155 -1.16817,-1.4117 -2.69336,-2.11748 -4.57545,-2.11748 -0.56786,0 -1.21692,0.11116 -1.94701,0.33816 l 4.03999,-9.92723 0.26806,-0.68148 c 0.25941,-0.61644 0.38942,-1.1763 0.38942,-1.67923 0,-0.64908 -0.25147,-1.1926 -0.75448,-1.6306 -0.48671,-0.45447 -1.09517,-0.68147 -1.82537,-0.68147 z m -84.377578,5.81664 h 0.365063 c 1.476258,0 2.449874,0.0871 2.920368,0.26514 1.184399,0.43799 1.776626,1.33046 1.776626,2.67706 0,0.74643 -0.21097,1.55774 -0.632724,2.43371 -0.405453,0.87613 -0.916711,1.59014 -1.533321,2.14178 -1.168207,1.05465 -2.888035,1.58189 -5.159459,1.58189 l -1.460224,0.0235 z m 117.549368,5.4491 c -1.21685,0 -2.15784,0.81942 -2.82309,2.45812 l -2.75007,6.79011 c -0.35701,0.8924 -0.53546,1.52518 -0.53546,1.89837 0,0.64893 0.24352,1.1925 0.73001,1.6305 0.4869,0.43799 1.0952,0.65717 1.82539,0.65717 1.20063,0 2.17414,-0.90866 2.92046,-2.7258 l 0.8275,-2.04428 h 2.53102 c -1.39536,1.55759 -2.36877,2.87179 -2.92044,3.94256 -0.55157,1.07086 -0.8275,2.17412 -0.8275,3.30993 0,1.78474 0.51117,3.23678 1.53334,4.35639 1.03838,1.11947 2.3687,1.6792 3.99125,1.6792 h 4.77012 c 1.29801,0 2.30395,-0.27598 3.01786,-0.82739 0.7302,-0.55162 1.09516,-1.33045 1.09516,-2.33636 0,-1.42788 -1.03023,-2.14177 -3.09076,-2.14177 h -3.06657 c -1.49266,0 -2.23909,-0.67337 -2.23909,-2.02002 0,-1.34661 1.28993,-3.25308 3.86971,-5.7192 l 0.26796,-0.24349 c 2.69328,0 4.0399,-1.03039 4.0399,-3.09089 0,-1.49269 -1.06264,-2.23906 -3.18824,-2.23906 h -5.69488 c -0.76264,0 -1.2412,-0.049 -1.43587,-0.14599 -0.19457,-0.0975 -0.34097,-0.34051 -0.43798,-0.73008 l -0.19456,-0.75452 c -0.27593,-1.13566 -1.01401,-1.70359 -2.2147,-1.70359 z M 9.879074,235.20969 a 0.52669034,0.52669034 0 0 0 -0.5182775,0.43563 0.52669034,0.52669034 0 0 0 0.4281094,0.60847 0.52669034,0.52669034 0 0 0 0.6084731,-0.42856 0.52669034,0.52669034 0 0 0 -0.4285874,-0.60833 0.52669034,0.52669034 0 0 0 -0.090088,-0.01 z m -2.3339918,1.55995 a 0.7706548,0.7706548 0 0 0 -0.7616882,0.63773 0.7706548,0.7706548 0 0 0 0.627911,0.8907 0.7706548,0.7706548 0 0 0 0.8908126,-0.62542 0.7706548,0.7706548 0 0 0 -0.6278843,-0.89082 0.7706548,0.7706548 0 0 0 -0.1290443,-0.0141 z m 60.9213498,0.22134 c -1.60634,0 -2.871814,1.12757 -3.796583,3.38284 l -3.310002,8.12875 c -0.42194,1.03836 -0.632723,1.94698 -0.632723,2.7258 0,1.36282 0.470493,2.49052 1.411483,3.38283 0.941202,0.89242 2.125602,1.3385 3.553386,1.3385 h 3.553198 c 1.346738,0 2.466174,-0.52718 3.358529,-1.58189 0.454088,1.05471 1.362953,1.58189 2.725885,1.58189 h 4.356315 c 1.2981,0 2.303941,-0.27597 3.017772,-0.82737 0.730199,-0.56798 1.095156,-1.34674 1.095156,-2.33637 0,-0.76261 -0.234955,-1.30614 -0.705739,-1.63063 -0.470495,-0.34098 -1.265477,-0.51113 -2.38502,-0.51113 h -2.823072 l 3.528918,-8.66405 c 0.421943,-1.05471 0.632724,-1.83347 0.632724,-2.33641 0,-0.63274 -0.243491,-1.17626 -0.730096,-1.63059 -0.486824,-0.45448 -1.070911,-0.68147 -1.752378,-0.68147 -1.654889,0 -2.936669,1.1358 -3.845238,3.40722 l -3.042129,7.49588 c -0.665245,1.62255 -2.003819,2.43371 -4.015717,2.43371 -0.973322,0 -1.443923,-0.36498 -1.411589,-1.09516 0.01409,-0.21099 0.09758,-0.52722 0.243491,-0.94916 l 0.267979,-0.73002 2.555385,-6.25482 0.267979,-0.65704 c 0.259423,-0.63278 0.389424,-1.1925 0.389424,-1.67933 0,-0.64898 -0.24349,-1.19251 -0.730208,-1.6305 -0.486714,-0.45447 -1.078781,-0.68148 -1.776466,-0.68148 z m 70.188878,0 c -2.92055,0 -5.44342,1.13567 -7.56892,3.40728 -2.10935,2.27146 -3.16385,4.97282 -3.16385,8.10431 0,2.43372 0.66516,4.28339 1.99568,5.5489 1.34663,1.2655 3.30173,1.89823 5.86528,1.89823 h 6.88744 c 1.298,0 2.30395,-0.27597 3.01785,-0.82737 0.73021,-0.55163 1.09516,-1.32234 1.09516,-2.31206 0,-1.4441 -1.02214,-2.16607 -3.06648,-2.16607 h -7.22821 c -1.83337,0 -2.75007,-0.60848 -2.75007,-1.82524 h 4.8674 c 1.96314,0 3.43969,-0.3 4.42942,-0.90057 1.78479,-1.05451 2.67706,-2.67705 2.67706,-4.86738 0,-1.81728 -0.64895,-3.27742 -1.94704,-4.38083 -1.28167,-1.11946 -2.98531,-1.6792 -5.11072,-1.6792 z M 9.1902975,239.0984 a 1.160998,1.160998 0 0 0 -1.1437959,0.96131 1.160998,1.160998 0 0 0 0.9443135,1.3434 1.160998,1.160998 0 0 0 1.3434109,-0.94676 1.160998,1.160998 0 0 0 -0.9465996,-1.34091 1.160998,1.160998 0 0 0 -0.197409,-0.0189 z m 88.0428595,2.71119 c 0.681458,0 1.233132,0.23548 1.654885,0.70578 0.421945,0.454 0.632752,1.04642 0.632752,1.77663 0,0.94103 -0.283984,2.00369 -0.85178,3.18819 -0.551674,1.18441 -1.200612,2.07673 -1.947036,2.67706 -0.535243,0.43799 -1.192465,0.65708 -1.971218,0.65708 -1.087099,0 -2.036259,-0.51924 -2.847436,-1.5576 l 1.630511,-4.0156 c 0.924796,-2.28763 2.157907,-3.43154 3.699322,-3.43154 z m 21.611503,0 c 0.68146,0 1.23314,0.23548 1.65507,0.70578 0.42195,0.454 0.63273,1.04642 0.63273,1.77663 0,0.94103 -0.28399,2.00369 -0.85185,3.18819 -0.55165,1.18441 -1.20071,2.07673 -1.94694,2.67706 -0.53546,0.43799 -1.19256,0.65708 -1.97133,0.65708 -1.08711,0 -2.03633,-0.51924 -2.84753,-1.5576 l 1.63061,-4.0156 c 0.92488,-2.28763 2.15794,-3.43154 3.69924,-3.43154 z m 19.59163,0.14601 c 1.0708,0 1.63053,0.42997 1.67927,1.2898 0.0484,0.76258 -0.79509,1.14385 -2.53114,1.14385 h -2.67706 c 0.85994,-1.62248 2.03626,-2.43365 3.52893,-2.43365 z M 9.63577,242.56393 a 1.6962835,1.6962835 0 0 0 -1.6745179,1.40665 1.6962835,1.6962835 0 0 0 1.3824738,1.95922 1.6962835,1.6962835 0 0 0 1.9615361,-1.3799 1.6962835,1.6962835 0 0 0 -1.3823664,-1.96157 1.6962835,1.6962835 0 0 0 -0.2873113,-0.0235 z m 20.377615,0.92732 h 2.020036 c 2.35258,0 3.999417,0.32447 4.940406,0.9734 0.957208,0.64898 1.436052,1.76855 1.436052,3.35854 0,1.34674 -0.365063,2.68529 -1.095267,4.01575 -0.713906,1.3304 -1.646731,2.37687 -2.798796,3.13945 -1.80093,1.20074 -4.437497,1.80098 -7.909621,1.80098 h -1.971293 z m -24.5417353,0.27503 a 1.989041,1.989041 0 0 0 -1.9615346,1.64754 1.989041,1.989041 0 0 0 1.6207523,2.29993 1.989041,1.989041 0 0 0 2.2998751,-1.61841 1.989041,1.989041 0 0 0 -1.6207779,-2.2999 1.989041,1.989041 0 0 0 -0.3381228,-0.0283 z m 3.5143258,2.55781 a 0.24179664,0.24179664 0 0 0 -0.2382786,0.20204 0.24179664,0.24179664 0 0 0 0.1973023,0.27974 0.24179664,0.24179664 0 0 0 0.2797331,-0.19732 0.24179664,0.24179664 0 0 0 -0.1968506,-0.27974 0.24179664,0.24179664 0 0 0 -0.042674,-0.004 z m -0.9371069,1.28745 a 1.6962835,1.6962835 0 0 0 -1.6718585,1.40435 1.6962835,1.6962835 0 0 0 1.3798933,1.96154 1.6962835,1.6962835 0 0 0 1.9616435,-1.37992 1.6962835,1.6962835 0 0 0 -1.37992,-1.96153 1.6962835,1.6962835 0 0 0 -0.2896783,-0.0235 z m -3.506926,1.82288 a 0.24179664,0.24179664 0 0 0 -0.2382881,0.20205 0.24179664,0.24179664 0 0 0 0.1973332,0.27975 0.24179664,0.24179664 0 0 0 0.2797021,-0.19734 0.24179664,0.24179664 0 0 0 -0.1973011,-0.27974 0.24179664,0.24179664 0 0 0 -0.042706,-0.004 z m 0.082529,1.04158 a 1.6962835,1.6962835 0 0 0 -1.6719673,1.40683 1.6962835,1.6962835 0 0 0 1.3799231,1.96158 1.6962835,1.6962835 0 0 0 1.9615346,-1.3824 1.6962835,1.6962835 0 0 0 -1.3799232,-1.96157 1.6962835,1.6962835 0 0 0 -0.2895672,-0.0235 z m 3.1297145,0.83491 a 0.24179664,0.24179664 0 0 0 -0.2382785,0.20204 0.24179664,0.24179664 0 0 0 0.1973289,0.27974 0.24179664,0.24179664 0 0 0 0.2798132,-0.19732 0.24179664,0.24179664 0 0 0 -0.1973289,-0.27976 0.24179664,0.24179664 0 0 0 -0.042674,-0.004 z m -1.0488938,2.79879 a 1.8342907,1.8342907 0 0 0 -1.8083251,1.51856 1.8342907,1.8342907 0 0 0 1.4920026,2.12222 1.8342907,1.8342907 0 0 0 2.1221717,-1.4943 1.8342907,1.8342907 0 0 0 -1.4943664,-2.11981 1.8342907,1.8342907 0 0 0 -0.311297,-0.0283 z m -3.0761667,0.1361 a 0.76473517,0.76473517 0 0 0 -0.7544741,0.63274 0.76473517,0.76473517 0 0 0 0.6204844,0.88596 0.76473517,0.76473517 0 0 0 0.8859976,-0.62303 0.76473517,0.76473517 0 0 0 -0.6230361,-0.88595 0.76473517,0.76473517 0 0 0 -0.1290465,-0.01 z m 0.7885214,1.31907 c -0.210967,0.29528 -0.5769671,0.46247 -0.9565476,0.39654 -0.096942,-0.0189 -0.181767,-0.0598 -0.2651075,-0.10218 a 2.3863192,2.3863192 0 0 0 -1.0198058,1.56481 2.3863192,2.3863192 0 0 0 1.9446871,2.75993 2.3863192,2.3863192 0 0 0 2.757364,-1.93728 c -0.1879422,0.0141 -0.3781445,0.0189 -0.5719641,-0.0189 -1.252949,-0.21759 -2.0963795,-1.41255 -1.8885193,-2.66501 z m 57.886268,3.12738 c -3.034069,0 -5.662579,1.12761 -7.885236,3.38288 -2.22279,2.25522 -3.334251,4.92423 -3.334251,8.00697 0,2.92059 1.087104,5.1271 3.261127,6.61975 0.924875,0.63279 2.70977,0.94917 5.354314,0.94917 1.622454,0 2.879978,-0.12151 3.772225,-0.36499 0.908657,-0.25949 1.784791,-0.72197 2.628511,-1.38724 1.265475,-1.02218 2.295889,-2.38512 3.090841,-4.08876 0.795166,-1.7197 1.19246,-3.44763 1.19246,-5.18377 0,-2.30386 -0.762436,-4.20225 -2.287621,-5.69495 -1.509071,-1.49278 -3.43979,-2.23906 -5.79237,-2.23906 z m 17.576513,0 c -1.606346,0 -2.871899,1.12761 -3.796695,3.38288 l -3.309892,8.12871 c -0.421942,1.03836 -0.632724,1.94702 -0.632724,2.7258 0,1.36286 0.470495,2.49041 1.41159,3.38283 0.94099,0.89246 2.125392,1.33855 3.553275,1.33855 h 3.553205 c 1.346624,0 2.46628,-0.52733 3.358526,-1.58189 0.454484,1.05456 1.362849,1.58189 2.725802,1.58189 h 4.356405 c 1.297992,0 2.303939,-0.27598 3.017843,-0.82743 0.730014,-0.56792 1.095192,-1.34659 1.095192,-2.33636 0,-0.76262 -0.235469,-1.30615 -0.705768,-1.63059 -0.470501,-0.3405 -1.265663,-0.51119 -2.385102,-0.51119 h -2.823179 l 3.526556,-8.66403 c 0.421934,-1.05457 0.632741,-1.83334 0.632741,-2.33636 0,-0.63278 -0.243509,-1.17631 -0.730122,-1.63065 -0.486825,-0.45447 -1.070807,-0.68147 -1.752265,-0.68147 -1.655002,0 -2.936774,1.13581 -3.845246,3.40728 l -3.042206,7.49587 c -0.665271,1.62251 -2.00384,2.43381 -4.015743,2.43381 -0.973219,0 -1.443923,-0.36498 -1.411589,-1.09516 0.01409,-0.21099 0.09758,-0.52732 0.243517,-0.94925 l 0.270323,-0.73008 2.552933,-6.25467 0.270353,-0.65718 c 0.259495,-0.63273 0.389494,-1.19251 0.389494,-1.6792 0,-0.64897 -0.243488,-1.19251 -0.730094,-1.63064 -0.48672,-0.45447 -1.07897,-0.68147 -1.776652,-0.68147 z m 33.575712,0 c -1.57373,0 -3.22882,0.66518 -4.96468,1.99573 -0.53545,-1.10342 -1.42789,-1.65504 -2.67715,-1.65504 -1.52529,0 -2.60416,0.78692 -3.23688,2.36081 l -4.916221,12.11992 -0.26751,0.65717 c -0.259524,0.63279 -0.389531,1.17631 -0.389531,1.63064 0,0.61653 0.24352,1.13566 0.730132,1.55755 0.486719,0.42196 1.078964,0.63278 1.77665,0.63278 1.70363,0 2.98542,-1.07087 3.84543,-3.21249 l 2.87163,-7.0579 c 1.02225,-2.51481 2.36898,-3.77236 4.03999,-3.77236 0.51924,0 0.9411,0.13799 1.26566,0.41398 0.34002,0.27598 0.50246,0.60846 0.4868,0.99786 -0.0141,0.3405 -0.13805,0.78687 -0.36506,1.33851 l -2.14158,5.30555 c -0.45449,1.1034 -0.68149,1.93079 -0.68149,2.48241 0,0.90863 0.33255,1.66314 0.99789,2.26338 0.68128,0.60037 1.51694,0.90041 2.50667,0.90041 h 5.0865 c 1.28169,0 2.28783,-0.27598 3.01785,-0.82743 0.7301,-0.55162 1.09517,-1.3223 1.09517,-2.31206 0,-1.44395 -1.03042,-2.16607 -3.09085,-2.16607 h -2.92048 l 2.65279,-6.54671 c 0.35701,-0.89247 0.53545,-1.71174 0.53545,-2.45801 0,-1.34676 -0.49495,-2.45812 -1.4846,-3.33424 -0.98973,-0.87621 -2.24712,-1.31425 -3.7724,-1.31425 z m 40.79911,0 c -2.92056,0 -5.44345,1.13571 -7.56884,3.40728 -2.10926,2.27146 -3.16397,4.97296 -3.16397,8.10431 0,2.43371 0.66536,4.28339 1.9958,5.54889 1.34662,1.26565 3.30162,1.89829 5.86519,1.89829 h 6.88764 c 1.29789,0 2.30384,-0.27598 3.01774,-0.82743 0.7301,-0.55162 1.09517,-1.3223 1.09517,-2.31206 0,-1.44395 -1.02224,-2.16608 -3.06656,-2.16608 h -7.22816 c -1.83353,0 -2.75016,-0.60832 -2.75016,-1.82522 h 4.8676 c 1.96315,0 3.43968,-0.3 4.42923,-0.90052 1.78481,-1.05471 2.67724,-2.67705 2.67724,-4.86743 0,-1.81728 -0.64905,-3.27752 -1.94702,-4.38069 -1.28169,-1.11956 -2.98533,-1.67934 -5.1109,-1.67934 z m -20.75964,4.81883 c 0.64894,0 1.1844,0.162 1.60615,0.48673 0.43808,0.32449 0.65721,0.73017 0.65721,1.2169 0,0.25951 -0.0806,0.59213 -0.24349,0.99787 l -1.97143,4.81869 c -0.35698,0.85991 -1.22497,1.28989 -2.60404,1.28989 -1.59012,0 -2.3851,-0.85191 -2.3851,-2.55541 0,-1.4927 0.5274,-2.90424 1.58191,-4.23465 1.07088,-1.34664 2.19032,-2.02002 3.3586,-2.02002 z m 20.54058,0.14599 c 1.07054,0 1.63035,0.42998 1.67937,1.28981 0.0484,0.76262 -0.79496,1.1439 -2.53112,1.1439 h -2.67706 c 0.85992,-1.62253 2.03618,-2.43371 3.52881,-2.43371 z m -92.316284,0.219 c 0.859941,0 1.557626,0.28398 2.092974,0.85172 0.535457,0.56793 0.803118,1.31421 0.803118,2.23907 0,1.6063 -0.551464,3.03404 -1.654896,4.28335 -0.665164,0.76262 -1.614502,1.14391 -2.847536,1.14391 -2.109275,0 -3.163779,-0.94102 -3.163779,-2.82311 0,-1.42775 0.494772,-2.7339 1.484608,-3.9184 0.989544,-1.18441 2.084917,-1.77654 3.285511,-1.77654 z m 62.503154,19.76184 h 4.21038 c -1.03847,2.33637 -1.99576,3.96701 -2.87181,4.89182 -0.87624,0.92487 -1.8983,1.38725 -3.06656,1.38725 -0.81121,0 -1.49267,-0.26797 -2.04435,-0.80307 -0.55165,-0.53543 -0.82747,-1.18441 -0.82747,-1.94697 0,-1.11961 0.39748,-1.98777 1.19254,-2.60421 0.81128,-0.61653 1.94704,-0.92482 3.40727,-0.92482 z m -97.288581,0.65717 h 6.400762 c -0.876162,2.04443 -1.987623,3.65873 -3.334279,4.84314 -1.330408,1.20056 -2.717641,1.80094 -4.161536,1.80094 -1.054877,0 -1.930825,-0.3165 -2.62851,-0.94913 -0.697977,-0.61657 -1.046447,-1.38739 -1.046447,-2.31211 0,-2.25526 1.589853,-3.38284 4.77001,-3.38284 z"
         style="opacity:1;fill:#000000;fill-opacity:1;stroke:none;stroke-width:3.85311127;stroke-linecap:round;stroke-linejoin:round;stroke-miterlimit:4;stroke-dasharray:none;stroke-dashoffset:0;stroke-opacity:1;paint-order:fill markers stroke" />
    </g>
    <g
       id="layer1-1"
       transform="matrix(1.2069501,-0.96146165,0.96146165,1.2069501,-180.69172,-231.50973)"
       style="opacity:0.219">
      <path
         style="opacity:1;fill:#000000;fill-opacity:1;stroke:none;stroke-width:3.85311127;stroke-linecap:round;stroke-linejoin:round;stroke-miterlimit:4;stroke-dasharray:none;stroke-dashoffset:0;stroke-opacity:1;paint-order:fill markers stroke"
         d="m 27.652723,222.72976 -0.657188,0.002 c -1.070801,0 -1.979456,0.3405 -2.725801,1.02217 -0.746319,0.66526 -1.119439,1.48454 -1.119439,2.4581 0,1.5576 0.908655,2.33637 2.725805,2.33637 h 0.657001 2.750159 c -4.460441,7.01489 -12.383703,40.59643 -19.739945,40.71393 -3.8985357,0.19592 -5.0870831,-5.95948 -3.6652516,-8.73709 -0.55992,0.28306 -1.2054622,0.4041 -1.8666346,0.28964 -0.980826,-0.16954 -1.7646071,-0.80598 -2.1806691,-1.63784 l -0.2703496,-0.01 c -7.0735565,15.80059 11.8592589,20.17591 17.7199919,9.43801 0.648944,-1.03836 1.541405,-2.815 2.677144,-5.32995 l 0.291965,-0.68134 h 3.577556 c 5.4678,0 9.55664,-0.87626 12.266118,-2.62845 2.0119,-1.29805 3.626216,-3.02607 4.84303,-5.18391 1.233034,-2.17416 1.849751,-4.3888 1.849751,-6.64406 0,-3.52078 -1.484688,-6.00333 -4.453877,-7.44728 2.19043,-0.76248 3.934747,-2.03632 5.232636,-3.82097 1.314109,-1.78487 1.971322,-3.79666 1.971322,-6.03558 0,-2.59596 -0.867891,-4.59164 -2.604152,-5.98699 -1.736049,-1.41154 -4.202329,-2.11732 -7.398629,-2.11732 z m 33.999169,0 c -1.638673,0 -2.83121,0.90848 -3.577555,2.72576 l -0.267476,0.65707 -9.289619,22.85768 c -0.182731,0.39607 -0.365914,0.7823 -0.552527,1.24356 L 35.72069,278.47926 h -8.591164 c -3.034067,0 -5.435387,0.51113 -7.203769,1.53329 -1.362956,0.79512 -2.441818,1.90633 -3.236983,3.33424 -0.794953,1.42774 -1.192456,2.9609 -1.192456,4.59973 0,2.62845 0.932931,4.79438 2.798822,6.49802 1.849537,1.7035 4.202142,2.55546 7.057736,2.55546 3.520755,0 6.635979,-1.24122 9.345564,-3.72367 1.038471,-0.95722 1.881899,-1.94698 2.531135,-2.96913 0.648944,-1.02212 1.541299,-2.79867 2.677038,-5.32991 l 0.292045,-0.68139 h 18.107043 c 0.458184,0 0.87196,-0.0424 1.265475,-0.10973 l 55.163014,-0.49403 c -0.52842,1.10137 -0.80558,2.25776 -0.80558,3.47543 0,2.32015 0.83556,4.25093 2.50675,5.79223 1.655,1.5414 3.73165,2.31206 6.23045,2.31206 4.77001,0 8.39623,-3.04213 10.8787,-9.12661 l 1.02218,-2.50671 h 4.03998 c 1.28178,0 2.28765,-0.28399 3.01786,-0.85182 0.73001,-0.55163 1.09516,-1.3223 1.09516,-2.31197 0,-1.42775 -1.03024,-2.14172 -3.09084,-2.14172 h -2.92048 l 6.10861,-15.04047 c 0.42204,-1.03836 0.63272,-1.80917 0.63272,-2.3121 0,-0.63273 -0.24348,-1.16807 -0.73001,-1.6062 -0.4705,-0.45447 -1.04642,-0.68147 -1.72791,-0.68147 -1.39538,0 -2.47432,0.64898 -3.23696,1.94702 -0.98966,-1.29804 -2.4824,-1.94702 -4.47797,-1.94702 -2.726,0 -5.18392,1.24921 -7.37427,3.74796 -2.19035,2.49861 -3.28551,5.3055 -3.28551,8.42071 0,1.93076 0.53546,3.49647 1.60625,4.69716 1.08701,1.20061 2.4986,1.80094 4.23466,1.80094 0.90858,0 1.87403,-0.308 2.8961,-0.92482 l -0.75448,1.89829 h -5.23248 c -0.93577,0 -1.78641,0.0682 -2.5992,0.16814 H 59.902096 c -0.156831,-0.01 -0.307494,-0.0235 -0.476956,-0.0235 H 42.559319 c 3.751539,-9.41757 7.551471,-18.56015 11.363131,-27.75426 0.03318,-0.033 0.05214,-0.0495 0.08725,-0.0805 l 9.467298,-23.29081 0.267502,-0.65709 c 0.24349,-0.61652 0.364956,-1.16815 0.364956,-1.65502 0,-0.63273 -0.243491,-1.17603 -0.730205,-1.6306 -0.470494,-0.45446 -1.046447,-0.68133 -1.727912,-0.68133 z m 37.211882,0.002 c -1.590121,0 -2.766465,0.90862 -3.528925,2.72575 l -0.267959,0.68148 -10.197339,25.14054 -0.26748,0.65703 c -0.259524,0.63278 -0.389526,1.1926 -0.389526,1.67933 0,0.64894 0.24349,1.20057 0.730125,1.65491 0.486611,0.45446 1.078947,0.68147 1.776629,0.68147 1.460247,0 2.530949,-0.57594 3.212412,-1.72794 1.135848,1.152 2.506857,1.72794 4.113121,1.72794 h 2.312075 c 1.265471,0 2.482397,-0.42198 3.650583,-1.26552 3.34223,-2.4176 5.01342,-5.79234 5.01342,-10.12433 0,-2.23906 -0.58409,-4.0562 -1.75236,-5.45155 -1.16809,-1.4117 -2.69317,-2.11748 -4.575257,-2.11748 -0.567786,0 -1.216915,0.11116 -1.94694,0.33816 l 4.039997,-9.9272 0.26748,-0.68147 c 0.25952,-0.61644 0.38944,-1.17631 0.38944,-1.67924 0,-0.64907 -0.25147,-1.1926 -0.7544,-1.63059 -0.4868,-0.45447 -1.095273,-0.68148 -1.825288,-0.68148 z m 21.611496,0 c -1.59003,0 -2.76627,0.90862 -3.52892,2.72575 l -0.26747,0.68148 -10.19734,25.14054 -0.26796,0.65703 c -0.25953,0.63278 -0.38953,1.1926 -0.38953,1.67933 0,0.64894 0.24348,1.20057 0.73021,1.65491 0.48671,0.45446 1.07886,0.68147 1.77647,0.68147 1.4603,0 2.5312,-0.57594 3.21267,-1.72794 1.13567,1.152 2.50668,1.72794 4.11302,1.72794 h 2.312 c 1.26548,0 2.48239,-0.42198 3.65057,-1.26552 3.34231,-2.4176 5.01342,-5.79234 5.01342,-10.12433 0,-2.23906 -0.58398,-4.0562 -1.75219,-5.45155 -1.16817,-1.4117 -2.69336,-2.11748 -4.57545,-2.11748 -0.56786,0 -1.21692,0.11116 -1.94701,0.33816 l 4.03999,-9.92723 0.26806,-0.68148 c 0.25941,-0.61644 0.38942,-1.1763 0.38942,-1.67923 0,-0.64908 -0.25147,-1.1926 -0.75448,-1.6306 -0.48671,-0.45447 -1.09517,-0.68147 -1.82537,-0.68147 z m -84.377578,5.81664 h 0.365063 c 1.476258,0 2.449874,0.0871 2.920368,0.26514 1.184399,0.43799 1.776626,1.33046 1.776626,2.67706 0,0.74643 -0.21097,1.55774 -0.632724,2.43371 -0.405453,0.87613 -0.916711,1.59014 -1.533321,2.14178 -1.168207,1.05465 -2.888035,1.58189 -5.159459,1.58189 l -1.460224,0.0235 z m 117.549368,5.4491 c -1.21685,0 -2.15784,0.81942 -2.82309,2.45812 l -2.75007,6.79011 c -0.35701,0.8924 -0.53546,1.52518 -0.53546,1.89837 0,0.64893 0.24352,1.1925 0.73001,1.6305 0.4869,0.43799 1.0952,0.65717 1.82539,0.65717 1.20063,0 2.17414,-0.90866 2.92046,-2.7258 l 0.8275,-2.04428 h 2.53102 c -1.39536,1.55759 -2.36877,2.87179 -2.92044,3.94256 -0.55157,1.07086 -0.8275,2.17412 -0.8275,3.30993 0,1.78474 0.51117,3.23678 1.53334,4.35639 1.03838,1.11947 2.3687,1.6792 3.99125,1.6792 h 4.77012 c 1.29801,0 2.30395,-0.27598 3.01786,-0.82739 0.7302,-0.55162 1.09516,-1.33045 1.09516,-2.33636 0,-1.42788 -1.03023,-2.14177 -3.09076,-2.14177 h -3.06657 c -1.49266,0 -2.23909,-0.67337 -2.23909,-2.02002 0,-1.34661 1.28993,-3.25308 3.86971,-5.7192 l 0.26796,-0.24349 c 2.69328,0 4.0399,-1.03039 4.0399,-3.09089 0,-1.49269 -1.06264,-2.23906 -3.18824,-2.23906 h -5.69488 c -0.76264,0 -1.2412,-0.049 -1.43587,-0.14599 -0.19457,-0.0975 -0.34097,-0.34051 -0.43798,-0.73008 l -0.19456,-0.75452 c -0.27593,-1.13566 -1.01401,-1.70359 -2.2147,-1.70359 z M 9.879074,235.20969 a 0.52669034,0.52669034 0 0 0 -0.5182775,0.43563 0.52669034,0.52669034 0 0 0 0.4281094,0.60847 0.52669034,0.52669034 0 0 0 0.6084731,-0.42856 0.52669034,0.52669034 0 0 0 -0.4285874,-0.60833 0.52669034,0.52669034 0 0 0 -0.090088,-0.01 z m -2.3339918,1.55995 a 0.7706548,0.7706548 0 0 0 -0.7616882,0.63773 0.7706548,0.7706548 0 0 0 0.627911,0.8907 0.7706548,0.7706548 0 0 0 0.8908126,-0.62542 0.7706548,0.7706548 0 0 0 -0.6278843,-0.89082 0.7706548,0.7706548 0 0 0 -0.1290443,-0.0141 z m 60.9213498,0.22134 c -1.60634,0 -2.871814,1.12757 -3.796583,3.38284 l -3.310002,8.12875 c -0.42194,1.03836 -0.632723,1.94698 -0.632723,2.7258 0,1.36282 0.470493,2.49052 1.411483,3.38283 0.941202,0.89242 2.125602,1.3385 3.553386,1.3385 h 3.553198 c 1.346738,0 2.466174,-0.52718 3.358529,-1.58189 0.454088,1.05471 1.362953,1.58189 2.725885,1.58189 h 4.356315 c 1.2981,0 2.303941,-0.27597 3.017772,-0.82737 0.730199,-0.56798 1.095156,-1.34674 1.095156,-2.33637 0,-0.76261 -0.234955,-1.30614 -0.705739,-1.63063 -0.470495,-0.34098 -1.265477,-0.51113 -2.38502,-0.51113 h -2.823072 l 3.528918,-8.66405 c 0.421943,-1.05471 0.632724,-1.83347 0.632724,-2.33641 0,-0.63274 -0.243491,-1.17626 -0.730096,-1.63059 -0.486824,-0.45448 -1.070911,-0.68147 -1.752378,-0.68147 -1.654889,0 -2.936669,1.1358 -3.845238,3.40722 l -3.042129,7.49588 c -0.665245,1.62255 -2.003819,2.43371 -4.015717,2.43371 -0.973322,0 -1.443923,-0.36498 -1.411589,-1.09516 0.01409,-0.21099 0.09758,-0.52722 0.243491,-0.94916 l 0.267979,-0.73002 2.555385,-6.25482 0.267979,-0.65704 c 0.259423,-0.63278 0.389424,-1.1925 0.389424,-1.67933 0,-0.64898 -0.24349,-1.19251 -0.730208,-1.6305 -0.486714,-0.45447 -1.078781,-0.68148 -1.776466,-0.68148 z m 70.188878,0 c -2.92055,0 -5.44342,1.13567 -7.56892,3.40728 -2.10935,2.27146 -3.16385,4.97282 -3.16385,8.10431 0,2.43372 0.66516,4.28339 1.99568,5.5489 1.34663,1.2655 3.30173,1.89823 5.86528,1.89823 h 6.88744 c 1.298,0 2.30395,-0.27597 3.01785,-0.82737 0.73021,-0.55163 1.09516,-1.32234 1.09516,-2.31206 0,-1.4441 -1.02214,-2.16607 -3.06648,-2.16607 h -7.22821 c -1.83337,0 -2.75007,-0.60848 -2.75007,-1.82524 h 4.8674 c 1.96314,0 3.43969,-0.3 4.42942,-0.90057 1.78479,-1.05451 2.67706,-2.67705 2.67706,-4.86738 0,-1.81728 -0.64895,-3.27742 -1.94704,-4.38083 -1.28167,-1.11946 -2.98531,-1.6792 -5.11072,-1.6792 z M 9.1902975,239.0984 a 1.160998,1.160998 0 0 0 -1.1437959,0.96131 1.160998,1.160998 0 0 0 0.9443135,1.3434 1.160998,1.160998 0 0 0 1.3434109,-0.94676 1.160998,1.160998 0 0 0 -0.9465996,-1.34091 1.160998,1.160998 0 0 0 -0.197409,-0.0189 z m 88.0428595,2.71119 c 0.681458,0 1.233132,0.23548 1.654885,0.70578 0.421945,0.454 0.632752,1.04642 0.632752,1.77663 0,0.94103 -0.283984,2.00369 -0.85178,3.18819 -0.551674,1.18441 -1.200612,2.07673 -1.947036,2.67706 -0.535243,0.43799 -1.192465,0.65708 -1.971218,0.65708 -1.087099,0 -2.036259,-0.51924 -2.847436,-1.5576 l 1.630511,-4.0156 c 0.924796,-2.28763 2.157907,-3.43154 3.699322,-3.43154 z m 21.611503,0 c 0.68146,0 1.23314,0.23548 1.65507,0.70578 0.42195,0.454 0.63273,1.04642 0.63273,1.77663 0,0.94103 -0.28399,2.00369 -0.85185,3.18819 -0.55165,1.18441 -1.20071,2.07673 -1.94694,2.67706 -0.53546,0.43799 -1.19256,0.65708 -1.97133,0.65708 -1.08711,0 -2.03633,-0.51924 -2.84753,-1.5576 l 1.63061,-4.0156 c 0.92488,-2.28763 2.15794,-3.43154 3.69924,-3.43154 z m 19.59163,0.14601 c 1.0708,0 1.63053,0.42997 1.67927,1.2898 0.0484,0.76258 -0.79509,1.14385 -2.53114,1.14385 h -2.67706 c 0.85994,-1.62248 2.03626,-2.43365 3.52893,-2.43365 z M 9.63577,242.56393 a 1.6962835,1.6962835 0 0 0 -1.6745179,1.40665 1.6962835,1.6962835 0 0 0 1.3824738,1.95922 1.6962835,1.6962835 0 0 0 1.9615361,-1.3799 1.6962835,1.6962835 0 0 0 -1.3823664,-1.96157 1.6962835,1.6962835 0 0 0 -0.2873113,-0.0235 z m 20.377615,0.92732 h 2.020036 c 2.35258,0 3.999417,0.32447 4.940406,0.9734 0.957208,0.64898 1.436052,1.76855 1.436052,3.35854 0,1.34674 -0.365063,2.68529 -1.095267,4.01575 -0.713906,1.3304 -1.646731,2.37687 -2.798796,3.13945 -1.80093,1.20074 -4.437497,1.80098 -7.909621,1.80098 h -1.971293 z m -24.5417353,0.27503 a 1.989041,1.989041 0 0 0 -1.9615346,1.64754 1.989041,1.989041 0 0 0 1.6207523,2.29993 1.989041,1.989041 0 0 0 2.2998751,-1.61841 1.989041,1.989041 0 0 0 -1.6207779,-2.2999 1.989041,1.989041 0 0 0 -0.3381228,-0.0283 z m 3.5143258,2.55781 a 0.24179664,0.24179664 0 0 0 -0.2382786,0.20204 0.24179664,0.24179664 0 0 0 0.1973023,0.27974 0.24179664,0.24179664 0 0 0 0.2797331,-0.19732 0.24179664,0.24179664 0 0 0 -0.1968506,-0.27974 0.24179664,0.24179664 0 0 0 -0.042674,-0.004 z m -0.9371069,1.28745 a 1.6962835,1.6962835 0 0 0 -1.6718585,1.40435 1.6962835,1.6962835 0 0 0 1.3798933,1.96154 1.6962835,1.6962835 0 0 0 1.9616435,-1.37992 1.6962835,1.6962835 0 0 0 -1.37992,-1.96153 1.6962835,1.6962835 0 0 0 -0.2896783,-0.0235 z m -3.506926,1.82288 a 0.24179664,0.24179664 0 0 0 -0.2382881,0.20205 0.24179664,0.24179664 0 0 0 0.1973332,0.27975 0.24179664,0.24179664 0 0 0 0.2797021,-0.19734 0.24179664,0.24179664 0 0 0 -0.1973011,-0.27974 0.24179664,0.24179664 0 0 0 -0.042706,-0.004 z m 0.082529,1.04158 a 1.6962835,1.6962835 0 0 0 -1.6719673,1.40683 1.6962835,1.6962835 0 0 0 1.3799231,1.96158 1.6962835,1.6962835 0 0 0 1.9615346,-1.3824 1.6962835,1.6962835 0 0 0 -1.3799232,-1.96157 1.6962835,1.6962835 0 0 0 -0.2895672,-0.0235 z m 3.1297145,0.83491 a 0.24179664,0.24179664 0 0 0 -0.2382785,0.20204 0.24179664,0.24179664 0 0 0 0.1973289,0.27974 0.24179664,0.24179664 0 0 0 0.2798132,-0.19732 0.24179664,0.24179664 0 0 0 -0.1973289,-0.27976 0.24179664,0.24179664 0 0 0 -0.042674,-0.004 z m -1.0488938,2.79879 a 1.8342907,1.8342907 0 0 0 -1.8083251,1.51856 1.8342907,1.8342907 0 0 0 1.4920026,2.12222 1.8342907,1.8342907 0 0 0 2.1221717,-1.4943 1.8342907,1.8342907 0 0 0 -1.4943664,-2.11981 1.8342907,1.8342907 0 0 0 -0.311297,-0.0283 z m -3.0761667,0.1361 a 0.76473517,0.76473517 0 0 0 -0.7544741,0.63274 0.76473517,0.76473517 0 0 0 0.6204844,0.88596 0.76473517,0.76473517 0 0 0 0.8859976,-0.62303 0.76473517,0.76473517 0 0 0 -0.6230361,-0.88595 0.76473517,0.76473517 0 0 0 -0.1290465,-0.01 z m 0.7885214,1.31907 c -0.210967,0.29528 -0.5769671,0.46247 -0.9565476,0.39654 -0.096942,-0.0189 -0.181767,-0.0598 -0.2651075,-0.10218 a 2.3863192,2.3863192 0 0 0 -1.0198058,1.56481 2.3863192,2.3863192 0 0 0 1.9446871,2.75993 2.3863192,2.3863192 0 0 0 2.757364,-1.93728 c -0.1879422,0.0141 -0.3781445,0.0189 -0.5719641,-0.0189 -1.252949,-0.21759 -2.0963795,-1.41255 -1.8885193,-2.66501 z m 57.886268,3.12738 c -3.034069,0 -5.662579,1.12761 -7.885236,3.38288 -2.22279,2.25522 -3.334251,4.92423 -3.334251,8.00697 0,2.92059 1.087104,5.1271 3.261127,6.61975 0.924875,0.63279 2.70977,0.94917 5.354314,0.94917 1.622454,0 2.879978,-0.12151 3.772225,-0.36499 0.908657,-0.25949 1.784791,-0.72197 2.628511,-1.38724 1.265475,-1.02218 2.295889,-2.38512 3.090841,-4.08876 0.795166,-1.7197 1.19246,-3.44763 1.19246,-5.18377 0,-2.30386 -0.762436,-4.20225 -2.287621,-5.69495 -1.509071,-1.49278 -3.43979,-2.23906 -5.79237,-2.23906 z m 17.576513,0 c -1.606346,0 -2.871899,1.12761 -3.796695,3.38288 l -3.309892,8.12871 c -0.421942,1.03836 -0.632724,1.94702 -0.632724,2.7258 0,1.36286 0.470495,2.49041 1.41159,3.38283 0.94099,0.89246 2.125392,1.33855 3.553275,1.33855 h 3.553205 c 1.346624,0 2.46628,-0.52733 3.358526,-1.58189 0.454484,1.05456 1.362849,1.58189 2.725802,1.58189 h 4.356405 c 1.297992,0 2.303939,-0.27598 3.017843,-0.82743 0.730014,-0.56792 1.095192,-1.34659 1.095192,-2.33636 0,-0.76262 -0.235469,-1.30615 -0.705768,-1.63059 -0.470501,-0.3405 -1.265663,-0.51119 -2.385102,-0.51119 h -2.823179 l 3.526556,-8.66403 c 0.421934,-1.05457 0.632741,-1.83334 0.632741,-2.33636 0,-0.63278 -0.243509,-1.17631 -0.730122,-1.63065 -0.486825,-0.45447 -1.070807,-0.68147 -1.752265,-0.68147 -1.655002,0 -2.936774,1.13581 -3.845246,3.40728 l -3.042206,7.49587 c -0.665271,1.62251 -2.00384,2.43381 -4.015743,2.43381 -0.973219,0 -1.443923,-0.36498 -1.411589,-1.09516 0.01409,-0.21099 0.09758,-0.52732 0.243517,-0.94925 l 0.270323,-0.73008 2.552933,-6.25467 0.270353,-0.65718 c 0.259495,-0.63273 0.389494,-1.19251 0.389494,-1.6792 0,-0.64897 -0.243488,-1.19251 -0.730094,-1.63064 -0.48672,-0.45447 -1.07897,-0.68147 -1.776652,-0.68147 z m 33.575712,0 c -1.57373,0 -3.22882,0.66518 -4.96468,1.99573 -0.53545,-1.10342 -1.42789,-1.65504 -2.67715,-1.65504 -1.52529,0 -2.60416,0.78692 -3.23688,2.36081 l -4.916221,12.11992 -0.26751,0.65717 c -0.259524,0.63279 -0.389531,1.17631 -0.389531,1.63064 0,0.61653 0.24352,1.13566 0.730132,1.55755 0.486719,0.42196 1.078964,0.63278 1.77665,0.63278 1.70363,0 2.98542,-1.07087 3.84543,-3.21249 l 2.87163,-7.0579 c 1.02225,-2.51481 2.36898,-3.77236 4.03999,-3.77236 0.51924,0 0.9411,0.13799 1.26566,0.41398 0.34002,0.27598 0.50246,0.60846 0.4868,0.99786 -0.0141,0.3405 -0.13805,0.78687 -0.36506,1.33851 l -2.14158,5.30555 c -0.45449,1.1034 -0.68149,1.93079 -0.68149,2.48241 0,0.90863 0.33255,1.66314 0.99789,2.26338 0.68128,0.60037 1.51694,0.90041 2.50667,0.90041 h 5.0865 c 1.28169,0 2.28783,-0.27598 3.01785,-0.82743 0.7301,-0.55162 1.09517,-1.3223 1.09517,-2.31206 0,-1.44395 -1.03042,-2.16607 -3.09085,-2.16607 h -2.92048 l 2.65279,-6.54671 c 0.35701,-0.89247 0.53545,-1.71174 0.53545,-2.45801 0,-1.34676 -0.49495,-2.45812 -1.4846,-3.33424 -0.98973,-0.87621 -2.24712,-1.31425 -3.7724,-1.31425 z m 40.79911,0 c -2.92056,0 -5.44345,1.13571 -7.56884,3.40728 -2.10926,2.27146 -3.16397,4.97296 -3.16397,8.10431 0,2.43371 0.66536,4.28339 1.9958,5.54889 1.34662,1.26565 3.30162,1.89829 5.86519,1.89829 h 6.88764 c 1.29789,0 2.30384,-0.27598 3.01774,-0.82743 0.7301,-0.55162 1.09517,-1.3223 1.09517,-2.31206 0,-1.44395 -1.02224,-2.16608 -3.06656,-2.16608 h -7.22816 c -1.83353,0 -2.75016,-0.60832 -2.75016,-1.82522 h 4.8676 c 1.96315,0 3.43968,-0.3 4.42923,-0.90052 1.78481,-1.05471 2.67724,-2.67705 2.67724,-4.86743 0,-1.81728 -0.64905,-3.27752 -1.94702,-4.38069 -1.28169,-1.11956 -2.98533,-1.67934 -5.1109,-1.67934 z m -20.75964,4.81883 c 0.64894,0 1.1844,0.162 1.60615,0.48673 0.43808,0.32449 0.65721,0.73017 0.65721,1.2169 0,0.25951 -0.0806,0.59213 -0.24349,0.99787 l -1.97143,4.81869 c -0.35698,0.85991 -1.22497,1.28989 -2.60404,1.28989 -1.59012,0 -2.3851,-0.85191 -2.3851,-2.55541 0,-1.4927 0.5274,-2.90424 1.58191,-4.23465 1.07088,-1.34664 2.19032,-2.02002 3.3586,-2.02002 z m 20.54058,0.14599 c 1.07054,0 1.63035,0.42998 1.67937,1.28981 0.0484,0.76262 -0.79496,1.1439 -2.53112,1.1439 h -2.67706 c 0.85992,-1.62253 2.03618,-2.43371 3.52881,-2.43371 z m -92.316284,0.219 c 0.859941,0 1.557626,0.28398 2.092974,0.85172 0.535457,0.56793 0.803118,1.31421 0.803118,2.23907 0,1.6063 -0.551464,3.03404 -1.654896,4.28335 -0.665164,0.76262 -1.614502,1.14391 -2.847536,1.14391 -2.109275,0 -3.163779,-0.94102 -3.163779,-2.82311 0,-1.42775 0.494772,-2.7339 1.484608,-3.9184 0.989544,-1.18441 2.084917,-1.77654 3.285511,-1.77654 z m 62.503154,19.76184 h 4.21038 c -1.03847,2.33637 -1.99576,3.96701 -2.87181,4.89182 -0.87624,0.92487 -1.8983,1.38725 -3.06656,1.38725 -0.81121,0 -1.49267,-0.26797 -2.04435,-0.80307 -0.55165,-0.53543 -0.82747,-1.18441 -0.82747,-1.94697 0,-1.11961 0.39748,-1.98777 1.19254,-2.60421 0.81128,-0.61653 1.94704,-0.92482 3.40727,-0.92482 z m -97.288581,0.65717 h 6.400762 c -0.876162,2.04443 -1.987623,3.65873 -3.334279,4.84314 -1.330408,1.20056 -2.717641,1.80094 -4.161536,1.80094 -1.054877,0 -1.930825,-0.3165 -2.62851,-0.94913 -0.697977,-0.61657 -1.046447,-1.38739 -1.046447,-2.31211 0,-2.25526 1.589853,-3.38284 4.77001,-3.38284 z"
         id="path3843"
         inkscape:connector-curvature="0" />
    </g>
    <text
       xml:space="preserve"
       style="font-style:normal;font-weight:normal;font-size:9.13602161px;line-height:1.25;font-family:sans-serif;letter-spacing:0px;word-spacing:0px;fill:#ff01b4;fill-opacity:1;stroke:none;stroke-width:0.22840053"
       x="29.746645"
       y="-66.332726"
       id="text4073"><tspan
         sodipodi:role="line"
         id="tspan4071"
         x="29.746645"
         y="-66.332726"
         style="font-style:normal;font-variant:normal;font-weight:normal;font-stretch:normal;font-family:'Montserrat ExtraBold';-inkscape-font-specification:'Montserrat ExtraBold, ';fill:#ff01b4;fill-opacity:1;stroke-width:0.22840053">MUCH WOW</tspan></text>
    <g
       id="g3762"
       style="fill:#31bef5;fill-opacity:1;stroke:none;filter:url(#filter3836)"
       transform="matrix(-0.12394984,0.02692529,0.02692529,0.12394984,451.34129,-2.2715041)">
      <path
         id="path3760"
         d="M 427.637,28.612 377.82,2.59 c -2.22,-1.159 -8.999,-4.681 -13.854,0.653 -3.221,3.558 -3.833,19.648 -3.918,28.454 -19.619,-2.34 -40.701,10.499 -58.068,35.651 -7.027,10.178 -13.075,21.39 -18.922,32.232 -6.03,11.185 -12.269,22.751 -19.449,32.852 -15.791,22.206 -37.174,38.475 -60.21,45.812 -10.445,3.32 -25.026,5.377 -35.145,-3.712 -1.424,-1.285 -2.699,-2.721 -3.836,-4.3 22.814,-23.556 35.65,-58.286 33.555,-90.981 -0.901,-13.939 -5.778,-19.246 -9.709,-21.254 -7.001,-3.548 -15.051,1.11 -21.543,12.486 -7.937,13.912 -13.854,30.039 -17.111,46.634 -3.13,15.942 -3.405,35.367 2.721,50.612 -17.437,15.251 -39.673,24.775 -66.205,28.34 -16.784,2.248 -29.959,1.312 -41.458,-2.961 -13.967,-5.198 -25.314,-15.92 -31.13,-29.423 -6.409,-14.87 -5.564,-33.419 2.059,-45.104 1.554,-2.384 1.267,-5.894 -0.64,-7.843 -1.911,-1.948 -4.72,-1.584 -6.274,0.8 -9.835,15.082 -11.072,38.698 -3,57.437 6.936,16.089 20.219,28.781 36.442,34.812 8.307,3.097 17.311,4.621 27.599,4.621 5.403,0 11.159,-0.425 17.355,-1.257 27.969,-3.756 51.542,-13.885 70.198,-30.142 1.672,2.406 3.588,4.61 5.769,6.569 10.375,9.329 24.695,11.158 42.555,5.464 24.743,-7.876 47.71,-25.352 64.668,-49.208 7.58,-10.657 13.985,-22.533 20.18,-34.023 5.704,-10.575 11.599,-21.504 18.278,-31.181 7.517,-10.879 27.587,-35.719 51.84,-31.68 3.341,33.879 9.058,35.208 11.575,35.762 0.61,0.131 1.21,0.19 1.798,0.19 3.831,0 7.075,-2.591 9.126,-4.229 l 45.255,-36.227 c 1.397,-1.116 2.181,-3.108 2.037,-5.176 -0.144,-2.062 -1.193,-3.858 -2.721,-4.658 z M 159.62,160.724 c -4.306,-12.491 -3.806,-28.455 -1.354,-40.951 2.996,-15.234 8.429,-30.039 15.718,-42.813 2.508,-4.403 6.3,-8.975 9.496,-8.975 0.492,0 0.967,0.109 1.424,0.338 3.191,1.627 3.988,8.812 4.18,11.822 1.836,28.699 -9.414,59.336 -29.464,80.579 z M 378.264,65.285 c -1.045,0.833 -2.673,2.134 -3.875,2.417 -0.936,-1.878 -3.609,-8.964 -5.442,-31.176 -0.379,-6.417 0.553,-20.459 1.415,-25.031 0.466,0.027 1.764,0.202 4.019,1.383 l 41.967,21.918 z"
         style="fill:#31bef5;fill-opacity:1;stroke:none;stroke-width:0.75;stroke-linecap:round;stroke-linejoin:round;stroke-miterlimit:10"
         inkscape:connector-curvature="0" />
    </g>
    <g
       id="g3764"
       style="fill:#31bef5;fill-opacity:1;stroke:none;filter:url(#filter3836)"
       transform="matrix(-0.12394984,0.02692529,0.02692529,0.12394984,451.34129,-2.2715041)" />
    <g
       style="fill:#adff2f;fill-opacity:1;stroke:none"
       id="swirly-arrow-silhouette-clip-art-12"
       transform="matrix(-0.12394984,0.02692529,0.02692529,0.12394984,451.34129,-2.2715041)">
      <path
         inkscape:connector-curvature="0"
         style="fill:#adff2f;fill-opacity:1;stroke:none;stroke-width:0.75;stroke-linecap:round;stroke-linejoin:round;stroke-miterlimit:10"
         d="M 427.637,28.612 377.82,2.59 c -2.22,-1.159 -8.999,-4.681 -13.854,0.653 -3.221,3.558 -3.833,19.648 -3.918,28.454 -19.619,-2.34 -40.701,10.499 -58.068,35.651 -7.027,10.178 -13.075,21.39 -18.922,32.232 -6.03,11.185 -12.269,22.751 -19.449,32.852 -15.791,22.206 -37.174,38.475 -60.21,45.812 -10.445,3.32 -25.026,5.377 -35.145,-3.712 -1.424,-1.285 -2.699,-2.721 -3.836,-4.3 22.814,-23.556 35.65,-58.286 33.555,-90.981 -0.901,-13.939 -5.778,-19.246 -9.709,-21.254 -7.001,-3.548 -15.051,1.11 -21.543,12.486 -7.937,13.912 -13.854,30.039 -17.111,46.634 -3.13,15.942 -3.405,35.367 2.721,50.612 -17.437,15.251 -39.673,24.775 -66.205,28.34 -16.784,2.248 -29.959,1.312 -41.458,-2.961 -13.967,-5.198 -25.314,-15.92 -31.13,-29.423 -6.409,-14.87 -5.564,-33.419 2.059,-45.104 1.554,-2.384 1.267,-5.894 -0.64,-7.843 -1.911,-1.948 -4.72,-1.584 -6.274,0.8 -9.835,15.082 -11.072,38.698 -3,57.437 6.936,16.089 20.219,28.781 36.442,34.812 8.307,3.097 17.311,4.621 27.599,4.621 5.403,0 11.159,-0.425 17.355,-1.257 27.969,-3.756 51.542,-13.885 70.198,-30.142 1.672,2.406 3.588,4.61 5.769,6.569 10.375,9.329 24.695,11.158 42.555,5.464 24.743,-7.876 47.71,-25.352 64.668,-49.208 7.58,-10.657 13.985,-22.533 20.18,-34.023 5.704,-10.575 11.599,-21.504 18.278,-31.181 7.517,-10.879 27.587,-35.719 51.84,-31.68 3.341,33.879 9.058,35.208 11.575,35.762 0.61,0.131 1.21,0.19 1.798,0.19 3.831,0 7.075,-2.591 9.126,-4.229 l 45.255,-36.227 c 1.397,-1.116 2.181,-3.108 2.037,-5.176 -0.144,-2.062 -1.193,-3.858 -2.721,-4.658 z M 159.62,160.724 c -4.306,-12.491 -3.806,-28.455 -1.354,-40.951 2.996,-15.234 8.429,-30.039 15.718,-42.813 2.508,-4.403 6.3,-8.975 9.496,-8.975 0.492,0 0.967,0.109 1.424,0.338 3.191,1.627 3.988,8.812 4.18,11.822 1.836,28.699 -9.414,59.336 -29.464,80.579 z M 378.264,65.285 c -1.045,0.833 -2.673,2.134 -3.875,2.417 -0.936,-1.878 -3.609,-8.964 -5.442,-31.176 -0.379,-6.417 0.553,-20.459 1.415,-25.031 0.466,0.027 1.764,0.202 4.019,1.383 l 41.967,21.918 z"
         id="path3799" />
    </g>
    <g
       style="fill:#31bef5;fill-opacity:1;stroke:none"
       id="Layer_1-2"
       transform="matrix(-0.12394984,0.02692529,0.02692529,0.12394984,451.34129,-2.2715041)" />
    <text
       id="text3770"
       y="5.9972911"
       x="436.35712"
       style="font-style:normal;font-variant:normal;font-weight:normal;font-stretch:normal;font-size:8.42369366px;line-height:1.25;font-family:'Montserrat ExtraBold';-inkscape-font-specification:'Montserrat ExtraBold, ';letter-spacing:0px;word-spacing:0px;fill:#31bef5;fill-opacity:1;stroke:none;stroke-width:0.21059233;filter:url(#filter3840)"
       xml:space="preserve"><tspan
         style="font-style:normal;font-variant:normal;font-weight:normal;font-stretch:normal;font-family:'Montserrat ExtraBold';-inkscape-font-specification:'Montserrat ExtraBold, ';fill:#31bef5;fill-opacity:1;stroke-width:0.21059233"
         y="5.9972911"
         x="436.35712"
         id="tspan3768"
         sodipodi:role="line">3D Printed</tspan></text>
    <text
       xml:space="preserve"
       style="font-style:normal;font-variant:normal;font-weight:normal;font-stretch:normal;font-size:8.42369366px;line-height:1.25;font-family:'Montserrat ExtraBold';-inkscape-font-specification:'Montserrat ExtraBold, ';letter-spacing:0px;word-spacing:0px;fill:#adff2f;fill-opacity:1;stroke:none;stroke-width:0.21059233;"
       x="436.35712"
       y="5.9972911"
       id="text3734"><tspan
         sodipodi:role="line"
         id="tspan3732"
         x="436.35712"
         y="5.9972911"
         style="font-style:normal;font-variant:normal;font-weight:normal;font-stretch:normal;font-family:'Montserrat ExtraBold';-inkscape-font-specification:'Montserrat ExtraBold, ';fill:#adff2f;fill-opacity:1;stroke-width:0.21059233;">3D Printed</tspan></text>
    <g
       id="swirly-arrow-silhouette-clip-art-13"
       transform="matrix(-0.26458335,0,0,0.26458335,384.09345,74.949885)" />
    <g
       id="Layer_1"
       transform="matrix(-0.26458335,0,0,0.26458335,384.09345,74.949885)" />
    <flowRoot
       xml:space="preserve"
       id="flowRoot3864"
       style="fill:black;fill-opacity:1;stroke:none;font-family:sans-serif;font-style:normal;font-weight:normal;font-size:40px;line-height:1.25;letter-spacing:0px;word-spacing:0px"><flowRegion
         id="flowRegion3866"><rect
           id="rect3868"
           width="111.42857"
           height="54.285713"
           x="428.57141"
           y="231.42857" /></flowRegion><flowPara
         id="flowPara3870" /></flowRoot>    <text
       id="text4025"
       y="-66.861893"
       x="28.688326"
       style="font-style:normal;font-weight:normal;font-size:9.13602161px;line-height:1.25;font-family:sans-serif;letter-spacing:0px;word-spacing:0px;fill:#b401ff;fill-opacity:1;stroke:none;stroke-width:0.22840053"
       xml:space="preserve"><tspan
         style="font-style:normal;font-variant:normal;font-weight:normal;font-stretch:normal;font-family:'Montserrat ExtraBold';-inkscape-font-specification:'Montserrat ExtraBold, ';fill:#b401ff;fill-opacity:1;stroke-width:0.22840053"
         y="-66.861893"
         x="28.688326"
         id="tspan4023"
         sodipodi:role="line">MUCH WOW</tspan></text>
    <text
       xml:space="preserve"
       style="font-style:normal;font-weight:normal;font-size:9.13602161px;line-height:1.25;font-family:sans-serif;letter-spacing:0px;word-spacing:0px;fill:#1f01ff;fill-opacity:1;stroke:none;stroke-width:0.22840053"
       x="27.630007"
       y="-67.39106"
       id="text4037"><tspan
         sodipodi:role="line"
         id="tspan4035"
         x="27.630007"
         y="-67.39106"
         style="font-style:normal;font-variant:normal;font-weight:normal;font-stretch:normal;font-family:'Montserrat ExtraBold';-inkscape-font-specification:'Montserrat ExtraBold, ';fill:#1f01ff;fill-opacity:1;stroke-width:0.22840053">MUCH WOW</tspan></text>
    <text
       id="text4041"
       y="-67.920227"
       x="26.571688"
       style="font-style:normal;font-weight:normal;font-size:9.13602161px;line-height:1.25;font-family:sans-serif;letter-spacing:0px;word-spacing:0px;fill:#0179ff;fill-opacity:1;stroke:none;stroke-width:0.22840053"
       xml:space="preserve"><tspan
         style="font-style:normal;font-variant:normal;font-weight:normal;font-stretch:normal;font-family:'Montserrat ExtraBold';-inkscape-font-specification:'Montserrat ExtraBold, ';fill:#0179ff;fill-opacity:1;stroke-width:0.22840053"
         y="-67.920227"
         x="26.571688"
         id="tspan4039"
         sodipodi:role="line">MUCH WOW</tspan></text>
    <text
       xml:space="preserve"
       style="font-style:normal;font-weight:normal;font-size:9.13602161px;line-height:1.25;font-family:sans-serif;letter-spacing:0px;word-spacing:0px;fill:#01fff0;fill-opacity:1;stroke:none;stroke-width:0.22840053"
       x="25.513369"
       y="-68.449394"
       id="text4045"><tspan
         sodipodi:role="line"
         id="tspan4043"
         x="25.513369"
         y="-68.449394"
         style="font-style:normal;font-variant:normal;font-weight:normal;font-stretch:normal;font-family:'Montserrat ExtraBold';-inkscape-font-specification:'Montserrat ExtraBold, ';fill:#01fff0;fill-opacity:1;stroke-width:0.22840053">MUCH WOW</tspan></text>
    <text
       id="text4049"
       y="-68.978561"
       x="24.45505"
       style="font-style:normal;font-weight:normal;font-size:9.13602161px;line-height:1.25;font-family:sans-serif;letter-spacing:0px;word-spacing:0px;fill:#01ff5b;fill-opacity:1;stroke:none;stroke-width:0.22840053"
       xml:space="preserve"><tspan
         style="font-style:normal;font-variant:normal;font-weight:normal;font-stretch:normal;font-family:'Montserrat ExtraBold';-inkscape-font-specification:'Montserrat ExtraBold, ';fill:#01ff5b;fill-opacity:1;stroke-width:0.22840053"
         y="-68.978561"
         x="24.45505"
         id="tspan4047"
         sodipodi:role="line">MUCH WOW</tspan></text>
    <text
       xml:space="preserve"
       style="font-style:normal;font-weight:normal;font-size:9.13602161px;line-height:1.25;font-family:sans-serif;letter-spacing:0px;word-spacing:0px;fill:#3dff01;fill-opacity:1;stroke:none;stroke-width:0.22840053"
       x="23.39673"
       y="-69.507729"
       id="text4053"><tspan
         sodipodi:role="line"
         id="tspan4051"
         x="23.39673"
         y="-69.507729"
         style="font-style:normal;font-variant:normal;font-weight:normal;font-stretch:normal;font-family:'Montserrat ExtraBold';-inkscape-font-specification:'Montserrat ExtraBold, ';fill:#3dff01;fill-opacity:1;stroke-width:0.22840053">MUCH WOW</tspan></text>
    <text
       id="text4057"
       y="-70.036896"
       x="22.338411"
       style="font-style:normal;font-weight:normal;font-size:9.13602161px;line-height:1.25;font-family:sans-serif;letter-spacing:0px;word-spacing:0px;fill:#d2ff01;fill-opacity:1;stroke:none;stroke-width:0.22840053"
       xml:space="preserve"><tspan
         style="font-style:normal;font-variant:normal;font-weight:normal;font-stretch:normal;font-family:'Montserrat ExtraBold';-inkscape-font-specification:'Montserrat ExtraBold, ';fill:#d2ff01;fill-opacity:1;stroke-width:0.22840053"
         y="-70.036896"
         x="22.338411"
         id="tspan4055"
         sodipodi:role="line">MUCH WOW</tspan></text>
    <text
       xml:space="preserve"
       style="font-style:normal;font-weight:normal;font-size:9.13602161px;line-height:1.25;font-family:sans-serif;letter-spacing:0px;word-spacing:0px;fill:#ff9601;fill-opacity:1;stroke:none;stroke-width:0.22840053"
       x="21.280092"
       y="-70.566063"
       id="text4061"><tspan
         sodipodi:role="line"
         id="tspan4059"
         x="21.280092"
         y="-70.566063"
         style="font-style:normal;font-variant:normal;font-weight:normal;font-stretch:normal;font-family:'Montserrat ExtraBold';-inkscape-font-specification:'Montserrat ExtraBold, ';fill:#ff9601;fill-opacity:1;stroke-width:0.22840053">MUCH WOW</tspan></text>
    <text
       id="text4065"
       y="-71.09523"
       x="20.221773"
       style="font-style:normal;font-weight:normal;font-size:9.13602161px;line-height:1.25;font-family:sans-serif;letter-spacing:0px;word-spacing:0px;fill:#ff0101;fill-opacity:1;stroke:none;stroke-width:0.22840053"
       xml:space="preserve"><tspan
         style="font-style:normal;font-variant:normal;font-weight:normal;font-stretch:normal;font-family:'Montserrat ExtraBold';-inkscape-font-specification:'Montserrat ExtraBold, ';fill:#ff0101;fill-opacity:1;stroke-width:0.22840053"
         y="-71.09523"
         x="20.221773"
         id="tspan4063"
         sodipodi:role="line">MUCH WOW</tspan></text>
    <text
       xml:space="preserve"
       style="font-style:normal;font-weight:normal;font-size:9.13602161px;line-height:1.25;font-family:sans-serif;letter-spacing:0px;word-spacing:0px;fill:#ffffff;fill-opacity:1;stroke:none;stroke-width:0.22840053"
       x="19.163454"
       y="-71.624397"
       id="text4069"><tspan
         sodipodi:role="line"
         id="tspan4067"
         x="19.163454"
         y="-71.624397"
         style="font-style:normal;font-variant:normal;font-weight:normal;font-stretch:normal;font-family:'Montserrat ExtraBold';-inkscape-font-specification:'Montserrat ExtraBold, ';fill:#ffffff;fill-opacity:1;stroke-width:0.22840053">MUCH WOW</tspan></text>
    <flowRoot
       xml:space="preserve"
       id="flowRoot4140"
       style="fill:black;fill-opacity:1;stroke:none;font-family:sans-serif;font-style:normal;font-weight:normal;font-size:40px;line-height:1.25;letter-spacing:0px;word-spacing:0px"><flowRegion
         id="flowRegion4142"><rect
           id="rect4144"
           width="299.00516"
           height="129.29953"
           x="250.51784"
           y="821.40094" /></flowRegion><flowPara
         id="flowPara4146" /></flowRoot>  </g>
</svg>
